<svg width="448" height="388" viewBox="0 0 448 388" fill="none" xmlns="http://www.w3.org/2000/svg">
<path fill-rule="evenodd" clip-rule="evenodd" d="M202.835 358.914C175.667 358.914 153.642 365.426 153.642 373.457C153.642 381.488 175.667 388 202.835 388C230.004 388 252.027 381.488 252.027 373.457C252.027 365.426 230.002 358.914 202.835 358.914Z" fill="#CAE2FE"/>
<path fill-rule="evenodd" clip-rule="evenodd" d="M229.769 327.003C229.769 327.003 233.428 330.084 232.918 333.568C232.407 337.052 235.714 353.558 237.843 364.138C239.973 374.717 212.218 381.027 213.257 360.451C214.297 339.876 211.353 336.521 212.693 334.111C214.032 331.701 221.523 325.89 229.771 327.007L229.769 327.003Z" fill="#235DBD"/>
<path fill-rule="evenodd" clip-rule="evenodd" d="M231.474 306.134C231.474 306.134 230.787 325.754 230.671 331.041C230.671 331.041 227.805 334.659 223.448 334.659C219.09 334.659 218.057 331.877 218.057 331.877C218.057 331.877 218.287 322.137 218.057 313.091C217.827 304.045 230.671 301.82 231.474 306.134Z" fill="#FFB797"/>
<path fill-rule="evenodd" clip-rule="evenodd" d="M189.204 281.665L206.345 278.938C206.345 278.938 214.38 306.363 202.417 308.636C189.919 309.092 189.2 281.665 189.2 281.665H189.204Z" fill="#235DBD"/>
<path fill-rule="evenodd" clip-rule="evenodd" d="M193.547 256.805C193.547 256.805 208.051 258.427 207.978 273.483C207.952 278.882 205.365 285.243 201.198 286.022C193.942 287.376 185.094 282.758 183.263 269.32C180.685 250.386 193.547 256.805 193.547 256.805Z" fill="#EACC00"/>
<path fill-rule="evenodd" clip-rule="evenodd" d="M212.608 212.269C213.725 225.407 214.677 244.885 212.437 259.997C210.914 270.275 229.269 280.201 238.722 257.8C248.176 235.4 246.562 189.501 235.494 185.548C228.353 182.998 217.758 183.65 212.751 187.735C208.132 183.61 197.808 182.986 190.465 185.622C178.92 189.777 171.754 237.924 178.5 261.426C185.247 284.927 203.979 274.808 204.519 263.729C205.401 245.673 208.38 225.983 210.661 212.977C211.196 212.262 211.839 211.939 212.608 212.277V212.269Z" fill="#FFDF02"/>
<path fill-rule="evenodd" clip-rule="evenodd" d="M242.983 199.23C241.415 191.958 238.904 186.765 235.494 185.548C228.353 182.997 217.759 183.648 212.751 187.734C208.133 183.61 197.81 182.985 190.465 185.622C186.641 186.995 183.299 193.199 180.783 201.733C187.752 208.162 201.861 216.196 223.807 206.553C232.717 202.637 238.769 200.321 242.982 199.23H242.983Z" fill="#EACC00"/>
<path fill-rule="evenodd" clip-rule="evenodd" d="M216.449 325.184C218.868 305.595 204.071 287.948 212.022 262.369C219.973 236.79 234.833 238.258 238.766 257.706C242.698 277.155 232.083 314.643 232.135 324.746C232.135 324.746 225.185 328.039 216.449 325.184Z" fill="#FFDF02"/>
<path fill-rule="evenodd" clip-rule="evenodd" d="M238.564 256.758C238.634 257.067 238.702 257.38 238.766 257.697C239.682 262.225 239.805 267.73 239.465 273.639C234.135 277.027 227.707 273.228 230.732 270.078C234.989 265.65 238.552 256.785 238.564 256.752V256.758Z" fill="#EACC00"/>
<path fill-rule="evenodd" clip-rule="evenodd" d="M218.627 217.874C218.627 217.874 216.345 225.479 225.022 248.451C233.699 271.423 208.428 250.429 218.627 217.874Z" fill="#EACC00"/>
<path fill-rule="evenodd" clip-rule="evenodd" d="M208.833 214.013C208.833 214.013 201.83 253.553 200.78 261.25C199.73 268.948 192.088 228.836 208.833 214.013Z" fill="#EACC00"/>
<path fill-rule="evenodd" clip-rule="evenodd" d="M187.124 278.829C187.124 278.829 188.739 284.05 195.23 285.78C201.721 287.51 202.749 284.841 202.749 284.841C202.749 284.841 193.393 284.513 187.124 278.829Z" fill="#FFDF02"/>
<path fill-rule="evenodd" clip-rule="evenodd" d="M148.265 143.863C148.265 143.863 159.284 136.125 170.321 119.136C181.357 102.146 187.431 128.238 183.484 137.339C179.537 146.44 170.581 152.964 165.116 156.303C159.651 159.642 147.05 156.6 148.264 143.863H148.265Z" fill="#E18B65"/>
<path fill-rule="evenodd" clip-rule="evenodd" d="M162.061 128.307C162.061 128.307 170.44 118.502 172.548 108.886C174.657 99.2701 177.301 95.3184 181.776 96.8988C186.252 98.4792 192.717 128.908 181.249 144.188C181.249 144.188 167.465 139.766 162.061 128.31V128.307Z" fill="#235DBD"/>
<path fill-rule="evenodd" clip-rule="evenodd" d="M140.395 117.67L131.972 120.414C131.972 120.414 130.821 152.765 148.806 157.779C164.669 162.209 165.452 151.423 160.123 141.654C154.811 131.916 143.417 123.209 140.395 117.669V117.67Z" fill="#FFB797"/>
<path fill-rule="evenodd" clip-rule="evenodd" d="M222.558 75.8259C222.558 75.8259 224.934 72.9084 227.756 76.1093C230.577 79.3102 259.999 98.8496 259.999 98.8496C259.999 98.8496 237.021 153.118 245.089 186.981C245.089 186.981 241.862 209.092 214.2 206.793C186.539 204.494 181.926 193.893 181.926 193.893C181.926 193.893 191.75 167.651 185.126 127.762C178.503 87.8727 171.181 103.549 195.933 83.1685C220.685 62.7878 222.563 75.8274 222.563 75.8274L222.558 75.8259Z" fill="#4185F5"/>
<path fill-rule="evenodd" clip-rule="evenodd" d="M210.437 206.413C204.371 205.689 199.56 204.55 195.751 203.244C196.542 183.905 191.584 163.962 187.357 150.794C187.294 148.47 187.176 146.069 187.004 143.593C202.659 165.91 219.021 177.116 219.841 189.15C220.516 199.093 213.893 204.357 210.437 206.409V206.413Z" fill="#235DBD"/>
<path fill-rule="evenodd" clip-rule="evenodd" d="M248.745 132.798C243.983 149 240.16 168.208 242.315 183.821C237.104 181.015 231.124 174.824 232.096 161.231C233.778 137.744 248.704 130.182 248.704 130.182L248.745 132.798Z" fill="#235DBD"/>
<path fill-rule="evenodd" clip-rule="evenodd" d="M228.385 62.168C228.385 62.168 227.886 75.0147 227.588 78.8982C227.588 78.8982 219.515 96.8245 212.938 95.9282C206.361 95.0319 204.865 82.0858 209.05 70.4337C213.235 58.7816 213.535 52.3086 213.535 52.3086L228.385 62.168Z" fill="#E18B65"/>
<path fill-rule="evenodd" clip-rule="evenodd" d="M258.433 162.417C258.433 162.417 248.158 135.459 250.497 122.537C252.836 109.614 264.186 110.708 268.586 121.171C272.986 131.635 277.681 153.621 276.965 159.839C276.965 159.839 272.572 167.723 258.433 162.417Z" fill="#E18B65"/>
<path fill-rule="evenodd" clip-rule="evenodd" d="M274.929 138.962C274.929 138.962 272.933 108.05 259.678 98.8495C246.422 89.6489 244.753 124.724 252.469 146.081C252.469 146.081 275.272 141.386 274.929 138.962Z" fill="#4185F5"/>
<path fill-rule="evenodd" clip-rule="evenodd" d="M275.642 154.468C275.642 154.468 270.966 145.722 252.582 150.496C234.199 155.27 218.258 155.587 218.258 155.587C218.258 155.587 213.902 158.684 217.089 167.236C217.089 167.236 247.481 175.981 266.184 171.782C284.886 167.582 275.64 154.468 275.64 154.468H275.642Z" fill="#FFB797"/>
<path fill-rule="evenodd" clip-rule="evenodd" d="M185.626 159.645L185.064 160.206C185.064 160.206 184.977 163.931 189.816 163.631C194.656 163.331 197.687 160.442 197.687 160.442L190.208 157.553L185.621 159.645H185.626Z" fill="#E15852"/>
<path fill-rule="evenodd" clip-rule="evenodd" d="M189.075 165.556L188.174 166.671C188.174 166.671 189.873 170.739 195.707 168.452C201.542 166.165 199.897 163.469 199.497 163.469C199.098 163.469 195.06 162.772 189.075 165.561V165.556Z" fill="#E15852"/>
<path fill-rule="evenodd" clip-rule="evenodd" d="M191.049 152.771L187.708 150.981C187.708 150.981 186.147 152.428 186.689 155.021C187.231 157.613 193.64 157.355 193.64 157.355C193.64 157.355 195.66 150.438 191.049 152.771Z" fill="#E15852"/>
<path fill-rule="evenodd" clip-rule="evenodd" d="M219.121 159.957L221.392 155.443C216.227 154.922 213.498 147.994 208.218 147.477C202.939 146.961 195.333 148.892 192.844 145.625C190.355 142.359 199.706 156.768 199.706 156.768C199.706 156.768 208.943 163.906 219.121 159.956V159.957Z" fill="#E18B65"/>
<path fill-rule="evenodd" clip-rule="evenodd" d="M147.649 119.154C147.649 119.154 145.213 108.816 143.474 105.861C141.736 102.906 131.912 99.2574 131.297 93.5233C130.682 87.7893 118.689 91.8316 123.872 105.039C129.055 118.246 140.77 125.322 147.633 119.154H147.649Z" fill="#E15852"/>
<path fill-rule="evenodd" clip-rule="evenodd" d="M115.999 112.261L116.897 114.027C116.897 114.027 117.463 116.958 124.787 114.027C132.111 111.096 128.054 108.695 128.054 108.695C128.054 108.695 122.758 107.796 115.999 112.257V112.261Z" fill="#E15852"/>
<path fill-rule="evenodd" clip-rule="evenodd" d="M127.029 124.359L126.168 126.17C126.168 126.17 128.966 129.572 135.672 126.446C142.378 123.319 139.05 117.162 127.029 124.368V124.359Z" fill="#E15852"/>
<path fill-rule="evenodd" clip-rule="evenodd" d="M123.02 117.169L121.255 119.928C121.255 119.928 125.041 123.43 132.625 121.327C140.209 119.225 132.613 112.204 123.02 117.172V117.169Z" fill="#E15852"/>
<path fill-rule="evenodd" clip-rule="evenodd" d="M140.368 48.5237C160.364 35.1487 189.513 44.0718 205.474 68.4681C221.318 92.679 218.207 123.022 198.599 136.546L197.443 137.125C194.249 139.565 216.144 168.616 223.608 179.418C223.608 179.418 224.403 185.594 222.986 189.561L215.004 188.522L191.757 139.971L189.542 141.081C170.474 147.495 146.847 137.965 133.06 116.893C117.099 92.5039 120.37 61.8912 140.366 48.5163L140.368 48.5237ZM149.26 62.1123C163.104 52.8539 183.282 59.0361 194.332 75.9132C205.382 92.7903 203.118 113.99 189.274 123.252C175.431 132.513 155.252 126.329 144.202 109.451C133.152 92.5722 135.417 71.3752 149.26 62.1123Z" fill="#FFDF02"/>
<path fill-rule="evenodd" clip-rule="evenodd" d="M127.993 107.554C118.219 85.2623 122.819 60.4623 140.133 48.6855C148.282 51.7247 160.229 55.8338 168.727 55.0532C171.314 54.8158 171.821 56.2493 170.971 58.7008C163.398 56.8562 155.653 57.8357 149.26 62.1139C135.418 71.3724 133.154 92.5649 144.211 109.452C146.56 113.061 149.437 116.298 152.744 119.057C152.827 121.53 150.983 122.201 145.616 119.159C137.448 114.532 131.833 111.294 128.007 107.559L127.993 107.554Z" fill="#FFDF02"/>
<path fill-rule="evenodd" clip-rule="evenodd" d="M131.648 50.8736C151.265 37.5001 180.667 46.4217 197.319 70.8181C213.848 95.0304 211.596 125.373 192.371 138.898C198.914 148.311 213.09 169.448 222.986 189.566C222.986 189.566 222.557 196.358 213.85 200.905C205.143 205.452 201.949 201.383 201.949 201.383C201.949 201.383 195.878 166.807 183.443 143.433C164.556 149.847 140.66 140.317 126.269 119.244C109.625 94.8612 112.031 64.2486 131.648 50.8736ZM140.926 64.4637C154.507 55.2053 174.861 61.386 186.387 78.2646C197.914 95.1432 196.249 116.342 182.675 125.603C169.1 134.864 148.74 128.681 137.214 111.802C125.687 94.9236 127.344 73.7222 140.926 64.4637Z" fill="#D9BD01"/>
<path fill-rule="evenodd" clip-rule="evenodd" d="M138.091 132.375C133.577 128.555 129.602 124.14 126.277 119.251C121.011 111.535 117.653 103.201 116.14 94.9824C116.487 95.1026 116.847 95.2362 117.219 95.3875C122.142 97.3924 126.805 97.425 130.561 96.7869C131.825 102.16 134.079 107.251 137.208 111.799C139.715 115.488 142.758 118.783 146.235 121.578C145.572 121.755 144.86 121.946 144.094 122.157C137.447 123.978 137.233 128.835 138.093 132.374L138.091 132.375Z" fill="#D9BD01"/>
<path fill-rule="evenodd" clip-rule="evenodd" d="M200.984 151.698C207.862 162.246 216.377 176.132 222.984 189.566C222.984 189.566 222.555 196.358 213.848 200.905C205.142 205.452 201.947 201.383 201.947 201.383C201.947 201.383 198.086 179.404 190.223 158.645C193.034 156.355 197.133 153.34 200.984 151.692V151.698Z" fill="#D9BD01"/>
<path fill-rule="evenodd" clip-rule="evenodd" d="M152.518 44.5488C157.156 44.5488 160.915 46.2213 160.915 48.2825C160.915 50.3437 157.156 52.0146 152.518 52.0146C147.88 52.0146 144.122 50.3437 144.122 48.2825C144.122 46.2213 147.882 44.5488 152.518 44.5488Z" fill="#D9BD01"/>
<path fill-rule="evenodd" clip-rule="evenodd" d="M204.007 96.7676C204.007 96.7676 206.266 126.997 181.193 139.623C181.193 139.623 213.262 140.458 204.007 96.7676Z" fill="#D9BD01"/>
<path fill-rule="evenodd" clip-rule="evenodd" d="M195.698 174.588C195.698 174.588 200.437 190.021 201.122 197.533C201.806 205.045 207.372 203.631 213.247 200.409C213.247 200.409 204.46 203.16 203.095 196.791C201.731 190.422 199.225 180.871 195.7 174.588H195.698Z" fill="#FFDF02"/>
<path fill-rule="evenodd" clip-rule="evenodd" d="M114.735 101.639C114.735 101.639 123.103 96.8819 129.071 96.7721C129.071 96.7721 129.945 96.6548 131.15 99.7296C132.356 102.804 128.936 103.668 126.196 104.756C123.456 105.844 118.691 107.943 116.738 107.492C114.785 107.041 113.02 102.468 114.735 101.639Z" fill="#FFB797"/>
<path fill-rule="evenodd" clip-rule="evenodd" d="M116.444 108.674C116.444 108.674 127.077 102.634 133.045 102.524C133.045 102.524 133.918 102.405 135.124 105.482C136.33 108.558 132.91 109.419 130.17 110.506C127.43 111.594 120.615 114.286 118.447 114.526C116.279 114.767 113.949 110.751 116.444 108.674Z" fill="#FFB797"/>
<path fill-rule="evenodd" clip-rule="evenodd" d="M120.632 114.461C120.632 114.461 129.551 108.957 135.521 108.846C137.12 108.445 142.257 113.011 132.64 116.83C129.9 117.917 124.799 120.074 122.63 120.314C120.462 120.554 118.138 116.54 120.632 114.461Z" fill="#FFB797"/>
<path fill-rule="evenodd" clip-rule="evenodd" d="M125.599 120.731C125.599 120.731 131.949 116.196 137.925 116.086C139.526 115.685 144.663 120.252 135.045 124.07C132.306 125.158 129.774 126.343 127.605 126.584C125.437 126.824 123.113 122.809 125.607 120.731H125.599Z" fill="#FFB797"/>
<path fill-rule="evenodd" clip-rule="evenodd" d="M222.331 159.228L221.392 155.443C221.392 155.443 206.105 149.021 200.629 148.835C195.152 148.65 195.329 159.726 199.228 167.621C203.128 175.515 217.089 167.236 217.089 167.236C217.089 167.236 223.231 163.823 222.331 159.223V159.228Z" fill="#FFB797"/>
<path fill-rule="evenodd" clip-rule="evenodd" d="M202.902 153.468L199.861 148.626C199.861 148.626 192.436 150.236 188.959 150.398C185.905 150.546 187.748 155.712 191.943 155.194C196.138 154.676 202.904 153.468 202.904 153.468H202.902Z" fill="#FFB797"/>
<path fill-rule="evenodd" clip-rule="evenodd" d="M201.578 157.748L200.045 153.764C200.045 153.764 192.566 153.882 187.439 156.062C182.311 158.242 184.843 164.027 193.018 160.994C201.193 157.96 201.578 157.748 201.578 157.748Z" fill="#FFB797"/>
<path fill-rule="evenodd" clip-rule="evenodd" d="M201.091 159.128L199.095 158.717C199.095 158.717 193.024 160.987 189.182 162.13C185.52 163.224 186.693 169.48 194.839 167.414C202.984 165.349 205.994 164.486 205.994 164.486C205.994 164.486 204.372 157.792 201.091 159.128Z" fill="#FFB797"/>
<path fill-rule="evenodd" clip-rule="evenodd" d="M203.602 167.02L201.361 165.745C201.361 165.745 193.3 167.312 191.943 167.839C190.585 168.366 190.174 172.938 194.319 172.675C198.463 172.413 202.877 171.408 205.538 169.896C205.712 164.944 203.395 166.582 203.599 167.02H203.602Z" fill="#FFB797"/>
<path fill-rule="evenodd" clip-rule="evenodd" d="M249.684 31.1947C249.684 31.1947 250.716 38.4943 244.522 45.6352C238.328 52.776 241.425 24.5332 241.425 24.5332L249.682 31.1977L249.684 31.1947Z" fill="#201547"/>
<path fill-rule="evenodd" clip-rule="evenodd" d="M247.233 31.8306L245.238 47.7758C245.238 47.7758 246.917 59.1059 245.238 62.9864C243.558 66.867 236.838 75.7856 232.114 76.4148C227.39 77.044 213.43 69.176 212.27 65.1931C211.11 61.2101 211.116 59.1088 211.116 59.1088C211.116 59.1088 204.818 63.2001 202.402 53.3392C199.986 43.4782 208.912 42.1145 211.221 48.6187L213.22 30.5707C213.22 30.5707 224.97 15.74 247.227 31.8291L247.233 31.8306Z" fill="#FFB797"/>
<path fill-rule="evenodd" clip-rule="evenodd" d="M211.12 59.1088C211.12 59.1088 204.821 63.2001 202.406 53.3392C202.301 52.9088 202.219 52.4963 202.155 52.0986C202.592 50.4009 203.731 49.3132 205.091 49.4809C208.119 49.8548 209.546 53.0201 209.546 53.0201C205.982 51.1948 207.069 59.1044 211.12 59.1044V59.1088Z" fill="#E15852"/>
<path fill-rule="evenodd" clip-rule="evenodd" d="M227.529 43.9951C228.001 43.9951 228.454 44.1827 228.789 44.5167C229.123 44.8506 229.311 45.3036 229.311 45.7759V47.0298C229.311 47.5021 229.123 47.955 228.789 48.289C228.454 48.623 228.001 48.8106 227.529 48.8106C227.056 48.8106 226.603 48.623 226.268 48.289C225.934 47.955 225.746 47.5021 225.746 47.0298V45.7759C225.746 45.3036 225.934 44.8506 226.268 44.5167C226.603 44.1827 227.056 43.9951 227.529 43.9951Z" fill="#322269"/>
<path fill-rule="evenodd" clip-rule="evenodd" d="M241.562 43.9951C242.034 43.9951 242.488 44.1827 242.822 44.5167C243.156 44.8506 243.344 45.3036 243.344 45.7759V47.0298C243.344 47.5021 243.156 47.955 242.822 48.289C242.488 48.623 242.034 48.8106 241.562 48.8106C241.089 48.8106 240.636 48.623 240.302 48.289C239.967 47.955 239.78 47.5021 239.78 47.0298V45.7759C239.78 45.3036 239.967 44.8506 240.302 44.5167C240.636 44.1827 241.089 43.9951 241.562 43.9951Z" fill="#322269"/>
<path fill-rule="evenodd" clip-rule="evenodd" d="M223.297 41.0773C223.297 41.0773 228.997 39.8159 230.996 40.0237C232.995 40.2314 230.816 36.152 227.303 36.7204C223.789 37.2887 222.417 40.7167 223.297 41.0773Z" fill="#322269"/>
<path fill-rule="evenodd" clip-rule="evenodd" d="M245.35 42.5174C245.35 42.5174 239.645 41.2902 237.646 41.5098C235.647 41.7295 237.803 37.6367 241.321 38.1843C244.84 38.7319 246.231 42.1509 245.35 42.5174Z" fill="#322269"/>
<path d="M239.94 62.9346C240.001 62.9057 240.067 62.8895 240.134 62.8869C240.201 62.8843 240.268 62.8954 240.331 62.9196C240.393 62.9437 240.451 62.9804 240.499 63.0273C240.547 63.0743 240.585 63.1306 240.61 63.1927C240.636 63.2548 240.648 63.3215 240.647 63.3886C240.646 63.4558 240.632 63.522 240.604 63.5833C240.576 63.6445 240.537 63.6995 240.487 63.7449C240.438 63.7903 240.379 63.8251 240.316 63.8473C240.295 63.8562 232.956 66.9146 226.697 62.1882C226.597 62.1077 226.532 61.9917 226.517 61.8645C226.501 61.7374 226.535 61.6091 226.612 61.5068C226.689 61.4044 226.803 61.3359 226.93 61.3157C227.056 61.2956 227.186 61.3253 227.291 61.3987C233.1 65.7853 239.913 62.942 239.939 62.9346H239.94Z" fill="#322269"/>
<path fill-rule="evenodd" clip-rule="evenodd" d="M230.623 66.6905C230.623 66.6905 234.125 67.0733 236.303 66.9873C238.482 66.9012 235.29 69.8617 232.957 69.3423C230.624 68.8229 230.623 66.6875 230.623 66.6875V66.6905Z" fill="#E15852"/>
<path fill-rule="evenodd" clip-rule="evenodd" d="M231.005 54.9153C231.005 54.9153 232.111 58.0079 234.853 58.3077C237.594 58.6074 238.496 54.666 238.496 54.666C238.496 54.666 236.13 58.7573 231.005 54.9138V54.9153Z" fill="#E15852"/>
<path d="M235.501 47.2127C235.461 47.1592 235.432 47.0981 235.416 47.0331C235.399 46.968 235.397 46.9003 235.408 46.8342C235.418 46.768 235.443 46.7048 235.479 46.6482C235.515 46.5917 235.562 46.5431 235.617 46.5055C235.673 46.4678 235.736 46.4417 235.801 46.429C235.867 46.4162 235.935 46.417 236.001 46.4312C236.066 46.4454 236.128 46.4728 236.183 46.5118C236.237 46.5507 236.283 46.6004 236.318 46.6577C236.333 46.6799 241.74 54.5716 237.567 56.5141C233.601 58.3617 230.669 55.2691 230.66 55.2617C230.615 55.2149 230.58 55.1597 230.556 55.0993C230.532 55.0388 230.521 54.9743 230.522 54.9094C230.523 54.8445 230.537 54.7805 230.563 54.721C230.589 54.6615 230.627 54.6077 230.674 54.5627C230.72 54.5177 230.776 54.4823 230.836 54.4587C230.897 54.435 230.961 54.4234 231.026 54.4246C231.091 54.4259 231.155 54.4399 231.215 54.4659C231.274 54.4919 231.328 54.5293 231.373 54.5761C231.373 54.5761 233.826 57.1626 237.148 55.6149C240.267 54.165 235.515 47.232 235.501 47.2112V47.2127Z" fill="#322269"/>
<path fill-rule="evenodd" clip-rule="evenodd" d="M247.233 31.8311L246.861 34.8213C245.821 34.569 245.717 33.548 245.717 33.548C240.471 38.0964 236.807 31.1811 235.139 28.6331C233.472 26.0852 231.201 31.3473 231.201 31.3473C231.895 28.5738 227.169 25.0657 220.666 28.185C214.163 31.3043 220.54 34.9904 220.54 34.9904C211.29 38.1721 212.894 48.9308 212.894 48.9308L211.612 45.1319L213.22 30.5727C213.22 30.5727 224.971 15.742 247.227 31.8311H247.233Z" fill="#E15852"/>
<path fill-rule="evenodd" clip-rule="evenodd" d="M209.757 49.1668C209.757 49.1668 208.964 44.4864 206.741 34.4904C204.518 24.4944 208.801 15.9023 216.738 17.0123C216.738 17.0123 217.604 12.3037 221.254 11.2723C224.904 10.241 218.485 16.3905 218.485 16.3905C218.485 16.3905 230.397 6.94656 238.019 11.7902C245.64 16.6339 249.305 25.0316 251.038 23.5061C252.771 21.9806 249.779 19.4237 249.107 21.6675C249.107 21.6675 249.1 16.8861 254.263 20.2043C258.833 23.141 253.608 32.9827 249.731 33.3032C245.854 33.6238 245.009 30.2952 245.009 30.2952C245.009 30.2952 244.63 33.8567 240.209 33.514C235.788 33.1712 235.889 25.6252 230.02 25.3522C230.02 25.3522 235.06 29.0784 232.23 31.0788C232.23 31.0788 232.989 26.3182 225.74 25.9739C218.492 25.6297 214.141 32.7349 219.665 33.977C219.665 33.977 212.686 37.7714 212.899 47.6294C212.899 47.6294 214.417 49.9058 209.765 49.1683L209.757 49.1668Z" fill="#322269"/>
<path fill-rule="evenodd" clip-rule="evenodd" d="M209.759 49.1663C209.759 49.1663 208.972 44.5215 206.768 34.6072C207.616 34.7556 208.737 34.1872 210.216 32.3946C210.216 32.3946 210.504 37.719 215.889 31.2504C218.029 28.6787 219.771 27.3654 221.195 26.7822C216.986 28.6357 215.433 33.0149 219.658 33.9676C219.658 33.9676 212.686 37.7621 212.892 47.62C212.892 47.62 214.411 49.8964 209.759 49.1589V49.1663Z" fill="#201547"/>
<path fill-rule="evenodd" clip-rule="evenodd" d="M238.319 30.914C238.319 30.914 238.868 21.9553 231.594 21.3573C224.321 20.7593 223.076 24.5923 223.076 24.5923C223.076 24.5923 232.263 21.4389 238.319 30.914Z" fill="#201547"/>
<path fill-rule="evenodd" clip-rule="evenodd" d="M66.6155 147.659C98.9074 147.659 125.085 173.818 125.085 206.087C125.085 238.356 98.9074 264.514 66.6155 264.514C34.3236 264.514 8.147 238.355 8.147 206.087C8.147 173.82 34.3236 147.659 66.6155 147.659Z" fill="#4185F5"/>
<path fill-rule="evenodd" clip-rule="evenodd" d="M107.047 248.291C100.519 254.547 92.6268 259.202 83.9918 261.89C82.832 246.58 80.6282 221.638 80.6282 221.638L88.0415 215.147C88.6058 214.651 104.063 240.337 107.05 248.291H107.047Z" fill="#FFDF02"/>
<path fill-rule="evenodd" clip-rule="evenodd" d="M79.0303 208.216C79.0303 208.216 79.1521 202.662 79.2441 199.906C79.2441 199.906 78.6902 195.174 70.4364 193.216C62.1827 191.259 62.0505 193.319 62.0505 193.319L68.6678 204.726L79.0258 208.216H79.0303Z" fill="#235DBD"/>
<path fill-rule="evenodd" clip-rule="evenodd" d="M58.6793 191.402C58.6793 191.402 49.4439 194.68 50.7805 199.05L51.7532 202.935C51.7532 202.935 38.6314 210.221 35.4728 216.291C32.9482 221.129 31.5182 243.542 31.0385 252.451C40.6584 259.822 52.3334 264.024 64.4477 264.473C76.5621 264.923 88.5168 261.599 98.6577 254.962C97.3613 248.716 91.1019 219.05 88.5684 215.806C85.735 212.185 79.0925 205.363 79.0925 205.363L70.1006 199.172L58.6793 191.4V191.402Z" fill="#235DBD"/>
<path fill-rule="evenodd" clip-rule="evenodd" d="M58.7386 192.251C58.7386 192.251 43.9151 197.593 56.1873 201.721C68.4596 205.85 73.1983 208.399 73.1983 208.399L74.0478 212.284C74.0478 212.284 77.0253 205.903 78.1791 200.69C78.1791 200.69 78.6662 191.341 58.7386 192.251Z" fill="#FFDF02"/>
<path fill-rule="evenodd" clip-rule="evenodd" d="M24.5162 246.626C27.1477 234.943 32.4775 216.415 39.9947 215.257C48.2425 213.985 45.3942 244.342 43.4325 259.737C36.3216 256.66 29.8924 252.204 24.5177 246.626H24.5162Z" fill="#FFDF02"/>
<path fill-rule="evenodd" clip-rule="evenodd" d="M73.2952 184.234C73.2952 184.234 71.8324 195.094 72.7724 202.932C70.8419 205.846 63.7524 204.416 59.6864 202.932C58.5974 202.547 57.4311 202.145 56.1877 201.727C55.9896 201.662 55.8025 201.596 55.6263 201.531C56.0926 197.845 56.9911 187.551 53.9631 178.808C50.2 167.949 73.8179 170.246 73.2952 184.24V184.234Z" fill="#FF9A8A"/>
<path fill-rule="evenodd" clip-rule="evenodd" d="M73.2952 184.234C73.2952 184.234 72.2973 189.633 72.471 195.44C65.8597 197.404 57.297 187.922 57.297 187.922L59.2929 177.975L62.1753 172.165C67.6105 173.055 73.561 177.139 73.2967 184.24L73.2952 184.234Z" fill="#E15852"/>
<path fill-rule="evenodd" clip-rule="evenodd" d="M49.2968 176.952C49.2968 176.952 43.9983 165.726 40.1565 161.945C36.3147 158.164 40.9139 154.616 43.4756 155.022C43.4756 155.022 44.5418 142.515 51.2392 139.131C57.9367 135.746 48.2365 148.517 48.2365 148.517C48.2365 148.517 54.5494 138.439 69.4843 140.977C69.8392 141.037 70.1837 141.106 70.5238 141.178C70.5238 141.178 81.911 143.094 86.5309 152.928C88.907 157.992 86.9215 158.271 84.4341 157.343C84.7325 160.595 84.515 163.873 83.7896 167.057C81.6452 176.598 57.7793 180.597 49.2924 176.954L49.2968 176.952Z" fill="#201547"/>
<path fill-rule="evenodd" clip-rule="evenodd" d="M81.6456 156.606C81.6456 156.606 92.7833 183.813 74.9051 190.316C62.3016 194.901 54.9701 188.897 51.3436 180.639C44.7961 183.162 40.0099 172.97 42.6696 170.07C45.3292 167.17 47.2865 168.427 48.5859 169.141C47.9845 157.045 65.7276 146.942 81.6456 156.607V156.606Z" fill="#FF9A8A"/>
<path fill-rule="evenodd" clip-rule="evenodd" d="M81.6456 156.605C82.5233 158.874 83.2408 161.202 83.793 163.571C80.6046 162.654 76.3114 160.772 70.5272 157.316C70.5272 157.316 71.8029 157.798 71.4999 160.955C71.4999 160.955 60.1558 156.488 53.338 162.048C52.4039 162.811 51.259 163.012 49.9848 162.79C54.4399 153.999 68.6486 148.711 81.6456 156.602V156.605Z" fill="#E15852"/>
<path fill-rule="evenodd" clip-rule="evenodd" d="M51.3432 180.631C47.9752 181.928 44.9101 180.134 43.1756 177.552C41.8286 175.048 42.341 172.341 44.5537 172.071C47.445 171.718 48.3345 174.274 48.5246 174.992C45.761 174.25 45.2085 180.126 50.2829 178.864L51.3491 180.631H51.3432Z" fill="#E15852"/>
<path fill-rule="evenodd" clip-rule="evenodd" d="M76.4505 149.734C77.0044 150.606 77.7246 151.876 78.3454 152.999C94.7326 157.042 91.2116 165.439 76.6019 159.549C65.9097 155.239 64.2183 156.064 64.2183 156.064C64.2183 156.064 68.8872 156.271 70.9514 159.549C70.9514 159.549 62.8565 157.58 55.2398 160.63C55.2398 160.63 51.4753 163.522 52.5445 169.682C53.6137 175.842 53.6123 175.858 53.6123 175.858C53.6123 175.858 51.7426 170.071 48.3166 169.032C48.3166 169.032 47.4256 166.592 48.8602 163.648C48.5112 163.408 48.278 162.707 48.3315 161.185C48.5067 156.24 48.5067 151.995 52.5816 151.18C56.6565 150.365 76.4505 149.726 76.4505 149.726V149.734Z" fill="#201547"/>
<path fill-rule="evenodd" clip-rule="evenodd" d="M60.8385 158.344L60.5682 158.443L56.0864 160.104C56.0864 160.104 56.4101 154.84 64.456 155.711C64.456 155.711 65.3039 149.875 74.4472 154.062C74.4472 154.062 78.1925 150.352 82.9268 155.867L82.1917 157.553C82.1917 157.553 64.8777 152.062 60.8385 158.342V158.344Z" fill="#201547"/>
<path fill-rule="evenodd" clip-rule="evenodd" d="M76.589 174.955C76.589 174.955 74.9183 177.353 71.6616 174.89C72.5601 179.123 76.9157 178.272 76.589 174.955Z" fill="#E15852"/>
<path fill-rule="evenodd" clip-rule="evenodd" d="M77.5778 180.489C77.5778 180.489 66.5352 177.019 64.8972 181.035C63.2592 185.05 68.8637 189.13 74.1043 187.416C79.345 185.702 78.8772 181.041 77.5778 180.489Z" fill="#E15852"/>
<path fill-rule="evenodd" clip-rule="evenodd" d="M76.7953 180.603C76.7953 180.603 69.841 178.772 67.6758 179.785C65.5106 180.799 68.7242 182.813 71.4032 182.864C74.0822 182.916 77.0166 182.612 76.7953 180.603Z" fill="white"/>
<path fill-rule="evenodd" clip-rule="evenodd" d="M79.8393 167.205C79.3805 167.207 78.941 167.389 78.6166 167.714C78.2922 168.038 78.1093 168.477 78.1077 168.935V169.244C78.1093 169.702 78.2922 170.142 78.6166 170.466C78.941 170.79 79.3805 170.973 79.8393 170.974C80.298 170.973 80.7375 170.79 81.0619 170.466C81.3863 170.142 81.5692 169.702 81.5708 169.244V168.935C81.5692 168.477 81.3863 168.038 81.0619 167.714C80.7375 167.389 80.298 167.207 79.8393 167.205Z" fill="#201547"/>
<path fill-rule="evenodd" clip-rule="evenodd" d="M64.869 167.205C64.4103 167.207 63.9708 167.389 63.6464 167.714C63.322 168.038 63.1391 168.477 63.1375 168.935V169.244C63.1391 169.702 63.322 170.142 63.6464 170.466C63.9708 170.79 64.4103 170.973 64.869 170.974C65.3279 170.973 65.7676 170.79 66.0921 170.466C66.4166 170.142 66.5994 169.703 66.6006 169.244V168.935C66.5994 168.477 66.4166 168.037 66.0921 167.713C65.7676 167.389 65.3279 167.206 64.869 167.205Z" fill="#201547"/>
<path fill-rule="evenodd" clip-rule="evenodd" d="M82.299 164.453C82.299 164.453 77.9389 164.686 77.5068 164.453C77.0746 164.22 77.2098 162.159 79.5368 162.258C81.8638 162.358 82.8633 164.287 82.299 164.453Z" fill="#201547"/>
<path fill-rule="evenodd" clip-rule="evenodd" d="M62.5343 164.916C62.5343 164.916 66.8929 165.149 67.325 164.916C67.7571 164.683 67.622 162.621 65.295 162.722C62.9679 162.823 61.967 164.745 62.5343 164.916Z" fill="#201547"/>
<path fill-rule="evenodd" clip-rule="evenodd" d="M326.69 233.683C294.399 233.683 268.221 259.84 268.221 292.111C268.221 324.381 294.392 350.537 326.69 350.537C358.988 350.537 385.16 324.378 385.16 292.111C385.16 259.843 358.982 233.683 326.69 233.683Z" fill="#4185F5"/>
<path fill-rule="evenodd" clip-rule="evenodd" d="M330.83 233.825C330.83 233.825 347.748 229.798 352.154 250.401C356.56 271.004 364.797 286.089 338.468 289.321C312.138 292.553 303.323 286.762 305.411 278.009C307.499 269.255 312.254 250.478 312.254 250.478C312.254 250.478 323.392 235.327 330.829 233.825H330.83Z" fill="#201547"/>
<path fill-rule="evenodd" clip-rule="evenodd" d="M306.043 255.97C299.285 245.642 308.672 227.239 324.649 232.84C356.631 218.402 363.726 289.182 325.329 275.888C305.855 269.147 306.995 258.753 306.045 255.97H306.043Z" fill="#322269"/>
<path fill-rule="evenodd" clip-rule="evenodd" d="M347.419 240.271C356.365 255.921 351.074 284.802 325.329 275.887C324.15 275.479 323.045 275.058 322.013 274.624C322.249 264.962 322.845 256.104 322.845 256.104C347.461 263.571 347.42 240.485 347.419 240.271Z" fill="#201547"/>
<path fill-rule="evenodd" clip-rule="evenodd" d="M291.164 338.513C299.178 344.658 308.654 348.612 318.662 349.985C320.12 338.581 321.929 310.196 320.322 302.688C318.335 293.443 313.298 292.152 308.39 298.593C304.74 303.381 295.602 326.825 291.164 338.513Z" fill="#FFDF02"/>
<path fill-rule="evenodd" clip-rule="evenodd" d="M327.006 284.33L316.002 292.603C316.002 292.603 310.788 297.398 301.925 309.602C295.173 318.899 297.118 326.727 302.344 329.026L300.274 344.247C307.661 347.975 315.755 350.098 324.022 350.475C332.29 350.852 340.544 349.475 348.24 346.435C346.904 335.402 343.191 305.619 341.838 301.04C340.166 295.4 333.342 292.603 333.342 292.603L327 284.332L327.006 284.33Z" fill="#235DBD"/>
<path fill-rule="evenodd" clip-rule="evenodd" d="M320.974 350.263C322.855 350.445 324.762 350.537 326.694 350.539C334.075 350.549 341.39 349.157 348.251 346.438C347.601 341.095 346.398 331.363 345.175 322.219C344.028 324.14 342.637 325.904 341.037 327.468L337.544 312.287C338.447 320.759 336.32 334.398 324.713 331.907C324.713 331.907 332.158 345.632 320.974 350.265V350.263Z" fill="#235DBD"/>
<path fill-rule="evenodd" clip-rule="evenodd" d="M339.805 340.821C339.805 340.821 331.449 301.252 340.382 299.369C347.741 297.817 357.756 328.511 361.062 339.375C355.176 343.661 348.538 346.806 341.492 348.647L339.805 340.821Z" fill="#FFDF02"/>
<path fill-rule="evenodd" clip-rule="evenodd" d="M339.805 340.82C339.805 340.82 339.251 338.195 338.582 334.268C347.64 341.436 357.45 336.615 357.275 327.754C358.883 332.354 360.202 336.542 361.063 339.375C355.178 343.661 348.539 346.806 341.492 348.647L339.805 340.822V340.82Z" fill="#FFDF02"/>
<path fill-rule="evenodd" clip-rule="evenodd" d="M315.479 273.912C315.479 273.912 316.942 284.771 316 292.61H333.35C333.35 292.61 331.051 279.347 334.813 268.488C338.574 257.628 314.958 259.924 315.48 273.918L315.479 273.912Z" fill="#FF9A8A"/>
<path fill-rule="evenodd" clip-rule="evenodd" d="M315.479 273.911C315.479 273.911 316.477 279.31 316.304 285.116C322.915 287.081 331.478 277.599 331.478 277.599L329.482 267.646L326.599 261.836C321.164 262.726 315.214 266.81 315.479 273.911Z" fill="#E15852"/>
<path fill-rule="evenodd" clip-rule="evenodd" d="M334.112 288.298C334.112 288.298 315.927 287.202 315.252 287.724C314.576 288.246 315.513 294.402 315.513 294.402L334.845 294.141C334.845 294.141 335.573 288.141 334.112 288.298Z" fill="#235DBD"/>
<path fill-rule="evenodd" clip-rule="evenodd" d="M308.479 245.11C308.479 245.11 295.443 271.465 312.806 279.211C325.053 284.678 332.792 279.211 336.996 271.227C343.349 274.206 349.396 265.452 346.398 261.3C344.624 258.842 342.33 259.16 340.555 260.009C342.014 247.989 325.038 236.595 308.479 245.11Z" fill="#FF9A8A"/>
<path fill-rule="evenodd" clip-rule="evenodd" d="M337 271.226C340.267 272.759 343.454 271.187 345.37 268.734C346.892 266.332 346.571 263.595 344.384 263.171C341.525 262.613 340.457 265.1 340.217 265.802C343.026 265.262 343.16 271.157 338.187 269.538L336.999 271.226H337Z" fill="#E15852"/>
<path fill-rule="evenodd" clip-rule="evenodd" d="M310.086 264.457C310.086 264.457 310.776 268.22 316.102 265.279C315.017 270.158 309.325 269.55 310.086 264.457Z" fill="#E15852"/>
<path fill-rule="evenodd" clip-rule="evenodd" d="M312.049 272.54C312.049 272.54 316.42 274.681 319.829 271.989C319.307 271.403 320.264 270.71 320.833 271.17C321.49 271.703 321.023 272.677 320.181 272.246C319.398 273.945 316.251 276.873 312.049 272.543V272.54Z" fill="#E15852"/>
<path fill-rule="evenodd" clip-rule="evenodd" d="M319.585 274.818C319.585 274.818 318.386 276.375 315.762 275.857C315.762 275.85 318.706 278.28 319.585 274.818Z" fill="#E15852"/>
<path fill-rule="evenodd" clip-rule="evenodd" d="M308.479 245.109C308.479 245.109 308.232 245.607 307.852 246.486C309.306 244.797 312.441 243.466 319.212 245.596C319.212 245.596 319.588 267.515 340.252 261.802C340.338 261.369 340.419 260.938 340.488 260.509C342.496 248.302 325.274 236.469 308.477 245.103L308.479 245.109Z" fill="#E15852"/>
<path fill-rule="evenodd" clip-rule="evenodd" d="M306.597 249.666C309.777 239.906 320.493 244.823 320.493 244.823C320.493 244.823 322.028 261.639 340.234 261.911C340.234 261.911 341.719 259.784 344.289 258.842C344.289 258.842 342.639 241.665 326.133 239.574C309.627 237.483 305.884 245.683 306.597 249.665V249.666Z" fill="#322269"/>
<path fill-rule="evenodd" clip-rule="evenodd" d="M328.65 252.967C329.216 255.921 333.686 261.538 340.233 261.911C340.233 261.911 341.718 259.784 344.287 258.842C345.357 258.383 345.865 255.546 342.822 253.105C340.104 256.873 333.631 256.93 328.649 252.967H328.65Z" fill="#201547"/>
<path fill-rule="evenodd" clip-rule="evenodd" d="M305.14 254.34C304.948 253.925 304.777 253.501 304.628 253.069C302.916 238.611 316.395 234.177 320.493 244.823C320.493 244.823 310.485 240.235 306.943 248.732C306.244 250.568 305.642 252.44 305.14 254.34Z" fill="#201547"/>
<path fill-rule="evenodd" clip-rule="evenodd" d="M310.133 248.418C308.923 248.693 308.1 249.614 308.296 250.478C308.492 251.342 309.632 251.814 310.841 251.545C312.05 251.276 312.874 250.349 312.678 249.485C312.482 248.622 311.351 248.144 310.133 248.418Z" fill="#201547"/>
<path fill-rule="evenodd" clip-rule="evenodd" d="M322.704 249.549C323.838 250.054 324.465 251.118 324.106 251.924C323.746 252.729 322.536 252.979 321.401 252.474C320.267 251.97 319.639 250.906 320 250.1C320.36 249.294 321.568 249.045 322.704 249.549Z" fill="#201547"/>
<path fill-rule="evenodd" clip-rule="evenodd" d="M309.16 256.712C308.775 256.729 308.412 256.898 308.151 257.181C307.89 257.464 307.752 257.839 307.766 258.224L307.8 259.039C307.817 259.424 307.986 259.786 308.269 260.047C308.553 260.308 308.928 260.447 309.313 260.432C309.699 260.416 310.062 260.247 310.324 259.963C310.585 259.68 310.723 259.304 310.708 258.919L310.675 258.104C310.658 257.719 310.489 257.357 310.205 257.096C309.921 256.835 309.546 256.697 309.16 256.712Z" fill="#201547"/>
<path fill-rule="evenodd" clip-rule="evenodd" d="M320.412 256.921C320.027 256.938 319.665 257.107 319.404 257.39C319.143 257.673 319.005 258.048 319.019 258.433L319.052 259.248C319.069 259.633 319.238 259.995 319.521 260.256C319.805 260.517 320.18 260.656 320.565 260.641C320.951 260.624 321.314 260.456 321.575 260.172C321.836 259.888 321.975 259.513 321.96 259.128L321.926 258.314C321.909 257.929 321.74 257.567 321.456 257.305C321.172 257.044 320.796 256.906 320.411 256.921H320.412Z" fill="#201547"/>
<path d="M315.111 258.037L310.953 258.055C310.851 257.398 310.594 256.774 310.204 256.235C309.815 255.696 309.302 255.257 308.71 254.954C308.117 254.651 307.462 254.493 306.796 254.492C306.131 254.492 305.474 254.649 304.881 254.951C304.288 255.253 303.775 255.691 303.384 256.229C302.994 256.767 302.736 257.391 302.633 258.048C302.53 258.705 302.584 259.377 302.791 260.009C302.998 260.641 303.352 261.215 303.824 261.683L303.847 261.704C304.434 262.278 305.176 262.668 305.982 262.825C306.788 262.983 307.622 262.901 308.382 262.59C309.142 262.28 309.795 261.754 310.26 261.077C310.724 260.4 310.981 259.603 310.997 258.782L315.069 258.765C315.099 259.845 315.545 260.871 316.314 261.632L316.336 261.651C316.925 262.228 317.672 262.619 318.482 262.775C319.293 262.931 320.131 262.846 320.893 262.53C321.655 262.213 322.307 261.68 322.768 260.996C323.23 260.312 323.479 259.508 323.486 258.683C325.745 258.649 334.994 258.5 338.14 258.465C341.287 258.429 341.571 260.614 341.571 260.619C341.59 260.71 341.642 260.791 341.719 260.844C341.795 260.897 341.888 260.919 341.98 260.906C342.072 260.892 342.155 260.844 342.213 260.771C342.27 260.699 342.298 260.607 342.29 260.514C342.29 260.514 341.917 257.695 338.132 257.742C334.983 257.778 325.559 257.928 323.43 257.96C323.264 256.972 322.751 256.076 321.983 255.432C321.215 254.788 320.242 254.439 319.24 254.448C318.238 254.457 317.271 254.823 316.515 255.481C315.758 256.138 315.262 257.044 315.114 258.034L315.111 258.037ZM304.316 256.246C304.8 255.759 305.418 255.426 306.092 255.289C306.765 255.152 307.464 255.218 308.1 255.477C308.736 255.737 309.282 256.178 309.667 256.747C310.052 257.315 310.261 257.985 310.266 258.672C310.271 259.358 310.073 260.031 309.696 260.606C309.319 261.18 308.781 261.63 308.148 261.899C307.516 262.167 306.818 262.243 306.143 262.117C305.467 261.99 304.845 261.666 304.353 261.186L304.337 261.169C304.012 260.847 303.754 260.464 303.577 260.043C303.4 259.621 303.308 259.169 303.306 258.712C303.304 258.255 303.392 257.802 303.565 257.379C303.739 256.956 303.994 256.571 304.316 256.246ZM316.804 256.193C317.256 255.737 317.827 255.414 318.451 255.262C319.076 255.11 319.731 255.133 320.343 255.33C320.955 255.526 321.501 255.888 321.92 256.375C322.339 256.863 322.615 257.456 322.717 258.091C322.73 258.171 322.74 258.26 322.748 258.358C322.748 258.444 322.759 258.535 322.76 258.629C322.763 259.316 322.562 259.987 322.184 260.56C321.806 261.132 321.267 261.581 320.634 261.848C320.002 262.116 319.305 262.19 318.63 262.063C317.955 261.936 317.333 261.612 316.842 261.133L316.826 261.115C316.17 260.465 315.8 259.582 315.795 258.659C315.791 257.736 316.154 256.849 316.804 256.193Z" fill="white"/>
<path fill-rule="evenodd" clip-rule="evenodd" d="M338.151 24.4718C305.859 24.4718 279.683 50.6296 279.683 82.8984C279.683 115.167 305.859 141.321 338.151 141.321C370.443 141.321 396.62 115.161 396.62 82.8924C396.62 50.6236 370.443 24.4658 338.151 24.4658V24.4718Z" fill="#4185F5"/>
<path fill-rule="evenodd" clip-rule="evenodd" d="M299.541 126.778C304.927 131.518 311.139 135.227 317.869 137.721C319.484 125.6 323.512 90.9761 315.996 95.7529C310.262 99.3946 303.642 115.205 299.541 126.778Z" fill="#FFDF02"/>
<path fill-rule="evenodd" clip-rule="evenodd" d="M337.921 78.9678L331.347 82.7148C331.347 82.7148 317.775 88.5497 313.102 98.6377C309.074 107.334 305.515 122.101 303.58 130.019C313.763 137.48 326.09 141.446 338.716 141.324C351.342 141.202 363.59 136.999 373.627 129.342C371.781 119.823 367.604 100.215 363.743 95.4813C358.582 89.167 349.913 81.9965 349.913 81.9965L337.925 78.9678H337.921Z" fill="#235DBD"/>
<path fill-rule="evenodd" clip-rule="evenodd" d="M331.473 65.3423C331.473 65.3423 332.935 76.2019 331.995 84.0402C333.926 86.9547 341.017 85.5242 345.081 84.0402C346.17 83.6564 347.337 83.2547 348.58 82.8352C348.775 82.7699 348.96 82.7046 349.142 82.6393C348.675 78.9532 347.777 68.6589 350.805 59.9169C354.566 49.0573 330.95 51.3544 331.473 65.3482V65.3423Z" fill="#FF9A8A"/>
<path fill-rule="evenodd" clip-rule="evenodd" d="M331.473 65.3421C331.473 65.3421 332.471 70.7407 332.297 76.5475C338.909 78.5123 347.471 69.0297 347.471 69.0297L345.477 59.0768L342.594 53.2686C337.159 54.1589 331.209 58.2428 331.474 65.3436L331.473 65.3421Z" fill="#E15852"/>
<path fill-rule="evenodd" clip-rule="evenodd" d="M331.052 88.2363C331.052 88.2363 331.782 81.4976 331.237 77.6735C331.237 77.6735 331.128 76.9048 332.301 76.8588V78.8399C333.301 79.2583 333.666 79.9395 338.28 78.3947C342.894 76.8499 347.339 73.5377 350.552 73.8419C353.766 74.1461 350.431 82.0378 349.761 86.2864C349.761 86.2864 332.993 95.0284 331.049 88.2289L331.052 88.2363Z" fill="#235DBD"/>
<path fill-rule="evenodd" clip-rule="evenodd" d="M352.492 139.553C352.663 127.202 353.619 97.643 358.82 93.3736C363.605 89.447 371.111 114.351 374.882 128.355C368.319 133.664 360.679 137.485 352.492 139.552V139.553Z" fill="#FFDF02"/>
<path fill-rule="evenodd" clip-rule="evenodd" d="M357.048 52.7146C356.454 51.2796 357.773 46.899 360.569 39.8041C360.569 39.8041 362.323 37.0944 360.765 36.0942C359.207 35.094 357.461 37.4298 357.461 37.4298C357.461 37.4298 355.976 25.9884 352.073 24.4718C348.171 22.9552 352.605 30.2222 352.605 30.2222C347.556 25.9187 341.381 16.5015 323.81 22.6332C311.495 26.9367 310.742 33.754 313.852 39.1542C314.467 48.2063 320.94 50.1058 320.94 50.1058L322.413 48.4245C316.789 39.405 354.233 50.5154 357.048 52.7087V52.7146Z" fill="#322269"/>
<path fill-rule="evenodd" clip-rule="evenodd" d="M319.964 40.2997C319.964 40.2997 312.872 68.8274 331.495 72.6872C344.629 75.4103 351.018 68.4119 353.416 59.7173C360.259 61.2696 363.524 50.496 360.476 48.0104C357.427 45.5247 355.67 47.0487 354.487 47.9436C353.337 35.8879 334.323 28.4443 319.964 40.3012V40.2997Z" fill="#FF9A8A"/>
<path fill-rule="evenodd" clip-rule="evenodd" d="M352.431 42.2201C346.95 33.901 331.859 30.4775 319.964 40.2998C325.047 43.6209 345.083 39.7062 345.083 39.7062C346.555 46.853 352.508 53.6243 352.508 53.6243C351.671 51.5601 351.938 46.6645 352.425 42.2245L352.431 42.2201Z" fill="#E15852"/>
<path fill-rule="evenodd" clip-rule="evenodd" d="M353.415 59.7179C360.471 61.1558 364.014 50.1523 358.91 50.2695C355.998 50.3363 355.487 52.994 355.402 53.7316C358.031 52.6038 359.424 58.3319 354.214 57.8154L353.415 59.7179Z" fill="#E15852"/>
<path fill-rule="evenodd" clip-rule="evenodd" d="M355.563 44.2193C355.496 44.5977 354.486 47.9425 354.486 47.9425C354.486 47.9425 352.805 50.5721 352.513 53.6202C352.513 53.6202 346.632 46.7702 346.683 37.0087C346.683 37.0087 319.655 43.1968 317.834 39.1664C314.567 31.895 340.445 30.2463 342.94 30.9037C346.388 31.8133 352.018 35.9017 352.296 36.5353C352.574 37.169 355.563 44.2193 355.563 44.2193Z" fill="#322269"/>
<path fill-rule="evenodd" clip-rule="evenodd" d="M325.849 63.3609C325.849 63.3609 330.168 65.943 336.622 62.8281C336.622 62.8281 332.083 69.2834 325.849 63.3609Z" fill="#E15852"/>
<path fill-rule="evenodd" clip-rule="evenodd" d="M335.814 62.2735C335.683 62.5079 336.028 64.0839 336.898 63.6966C338.387 63.0333 336.197 61.5864 335.814 62.2735Z" fill="#E15852"/>
<path fill-rule="evenodd" clip-rule="evenodd" d="M334.062 66.2324C333.877 66.366 331.954 67.4389 329.523 66.5381C329.523 66.5292 332.334 69.7464 334.062 66.2324Z" fill="#E15852"/>
<path fill-rule="evenodd" clip-rule="evenodd" d="M327.018 57.1709C327.125 57.3846 328.206 59.9192 332.661 57.1709C332.468 61.3616 326.965 61.4996 327.018 57.1709Z" fill="#E15852"/>
<path fill-rule="evenodd" clip-rule="evenodd" d="M339.459 43.0316C337.927 42.901 336.623 43.5406 336.546 44.4591C336.468 45.3777 337.644 46.228 339.177 46.3571C340.71 46.4862 342.013 45.8467 342.091 44.9296C342.168 44.0125 340.99 43.1607 339.459 43.0316Z" fill="#201547"/>
<path fill-rule="evenodd" clip-rule="evenodd" d="M323.37 43.0316C324.903 42.901 326.207 43.5406 326.284 44.4591C326.361 45.3777 325.185 46.228 323.653 46.3571C322.12 46.4862 320.816 45.8467 320.739 44.9296C320.662 44.0125 321.839 43.1607 323.37 43.0316Z" fill="#201547"/>
<path fill-rule="evenodd" clip-rule="evenodd" d="M339.388 49.4355C338.932 49.4367 338.494 49.6185 338.171 49.941C337.849 50.2636 337.667 50.7008 337.666 51.1569V52.1186C337.667 52.5749 337.849 53.0122 338.171 53.335C338.494 53.6578 338.932 53.8399 339.388 53.8414C339.845 53.8403 340.283 53.6584 340.606 53.3355C340.929 53.0127 341.111 52.5751 341.112 52.1186V51.1569C341.111 50.7006 340.929 50.2635 340.606 49.9409C340.282 49.6184 339.845 49.4367 339.388 49.4355Z" fill="#201547"/>
<path fill-rule="evenodd" clip-rule="evenodd" d="M324.082 49.4355C323.626 49.4367 323.188 49.6185 322.865 49.941C322.542 50.2636 322.361 50.7008 322.359 51.1569V52.1186C322.361 52.5749 322.542 53.0122 322.865 53.335C323.188 53.6578 323.625 53.8399 324.082 53.8414C324.539 53.8399 324.976 53.6578 325.299 53.335C325.622 53.0122 325.804 52.5749 325.805 52.1186V51.1569C325.804 50.7008 325.622 50.2636 325.299 49.941C324.976 49.6185 324.539 49.4367 324.082 49.4355Z" fill="#201547"/>
<path fill-rule="evenodd" clip-rule="evenodd" d="M406.199 152.32C429.286 152.32 448 171.018 448 194.092C448 217.167 429.289 235.864 406.199 235.864C383.11 235.864 364.397 217.167 364.397 194.092C364.397 171.018 383.113 152.32 406.199 152.32Z" fill="#CAE2FE"/>
<path fill-rule="evenodd" clip-rule="evenodd" d="M436.894 214.646C433.561 219.745 429.01 223.933 423.651 226.832C418.291 229.731 412.294 231.249 406.2 231.249C400.106 231.249 394.108 229.731 388.748 226.832C383.389 223.933 378.838 219.745 375.505 214.646C378.292 208.878 382.65 204.011 388.08 200.606C393.509 197.2 399.789 195.394 406.2 195.394C412.61 195.394 418.89 197.2 424.319 200.606C429.749 204.011 434.107 208.878 436.894 214.646Z" fill="white"/>
<path fill-rule="evenodd" clip-rule="evenodd" d="M406.199 165.479C403.594 165.479 401.047 166.252 398.88 167.698C396.714 169.145 395.026 171.201 394.028 173.606C393.031 176.011 392.771 178.658 393.279 181.212C393.787 183.766 395.042 186.111 396.884 187.952C398.727 189.793 401.074 191.047 403.629 191.555C406.185 192.063 408.834 191.802 411.241 190.806C413.648 189.81 415.705 188.122 417.153 185.957C418.6 183.793 419.373 181.247 419.373 178.644C419.373 175.152 417.985 171.804 415.515 169.335C413.044 166.866 409.693 165.479 406.199 165.479Z" fill="white"/>
<path fill-rule="evenodd" clip-rule="evenodd" d="M124.523 278.291C147.609 278.291 166.323 296.989 166.323 320.062C166.323 343.134 147.612 361.834 124.523 361.834C101.433 361.834 82.7206 343.136 82.7206 320.062C82.7206 296.987 101.435 278.291 124.523 278.291Z" fill="#CAE2FE"/>
<path fill-rule="evenodd" clip-rule="evenodd" d="M155.216 340.617C151.884 345.716 147.332 349.903 141.973 352.802C136.614 355.701 130.616 357.219 124.522 357.219C118.428 357.219 112.431 355.701 107.071 352.802C101.712 349.903 97.1606 345.716 93.8282 340.617C96.6149 334.848 100.973 329.982 106.402 326.576C111.832 323.171 118.112 321.364 124.522 321.364C130.933 321.364 137.213 323.171 142.642 326.576C148.072 329.982 152.43 334.848 155.216 340.617Z" fill="white"/>
<path fill-rule="evenodd" clip-rule="evenodd" d="M124.523 291.453C121.917 291.453 119.37 292.225 117.204 293.672C115.037 295.118 113.349 297.174 112.352 299.58C111.355 301.985 111.094 304.632 111.602 307.186C112.11 309.739 113.365 312.085 115.207 313.926C117.05 315.767 119.397 317.021 121.953 317.529C124.508 318.037 127.157 317.776 129.564 316.78C131.971 315.783 134.029 314.096 135.476 311.931C136.924 309.766 137.696 307.221 137.696 304.617C137.696 301.126 136.308 297.778 133.838 295.309C131.367 292.84 128.016 291.453 124.523 291.453Z" fill="white"/>
<path fill-rule="evenodd" clip-rule="evenodd" d="M57.4841 36.8213C80.5718 36.8213 99.2861 55.5192 99.2861 78.5934C99.2861 101.668 80.5748 120.364 57.4841 120.364C34.3934 120.364 15.6836 101.666 15.6836 78.5934C15.6836 55.5207 34.3979 36.8213 57.4841 36.8213Z" fill="#CAE2FE"/>
<path fill-rule="evenodd" clip-rule="evenodd" d="M88.1777 99.1484C84.8456 104.247 80.2941 108.435 74.9349 111.334C69.5756 114.233 63.5777 115.751 57.4837 115.751C51.3897 115.751 45.3918 114.233 40.0325 111.334C34.6733 108.435 30.1218 104.247 26.7897 99.1484C29.5763 93.3796 33.9345 88.5131 39.3638 85.1075C44.7931 81.702 51.0734 79.8955 57.4837 79.8955C63.894 79.8955 70.1744 81.702 75.6037 85.1075C81.033 88.5131 85.3911 93.3796 88.1777 99.1484Z" fill="white"/>
<path fill-rule="evenodd" clip-rule="evenodd" d="M57.484 49.9795C54.8785 49.9795 52.3315 50.7516 50.1651 52.1981C47.9987 53.6446 46.3103 55.7005 45.3132 58.106C44.3161 60.5114 44.0552 63.1583 44.5635 65.7119C45.0718 68.2656 46.3265 70.6112 48.1689 72.4523C50.0112 74.2933 52.3586 75.5471 54.914 76.055C57.4694 76.563 60.1182 76.3023 62.5254 75.3059C64.9326 74.3095 66.99 72.6222 68.4376 70.4574C69.8851 68.2925 70.6577 65.7474 70.6577 63.1437C70.6577 59.6524 69.2698 56.304 66.7993 53.8352C64.3287 51.3664 60.9779 49.9795 57.484 49.9795Z" fill="white"/>
<path fill-rule="evenodd" clip-rule="evenodd" d="M284.442 199.09C282.722 199.09 281.04 199.6 279.609 200.555C278.179 201.51 277.064 202.868 276.405 204.456C275.747 206.045 275.575 207.793 275.91 209.479C276.246 211.165 277.074 212.714 278.291 213.93C279.508 215.146 281.058 215.973 282.745 216.309C284.433 216.644 286.182 216.472 287.771 215.814C289.361 215.156 290.72 214.042 291.676 212.612C292.631 211.183 293.142 209.502 293.142 207.783C293.142 205.477 292.225 203.266 290.594 201.636C288.962 200.006 286.75 199.09 284.442 199.09Z" fill="#4185F5"/>
<path fill-rule="evenodd" clip-rule="evenodd" d="M315.8 176.046C314.76 176.046 313.743 176.354 312.878 176.932C312.013 177.509 311.339 178.33 310.941 179.291C310.542 180.251 310.438 181.308 310.641 182.328C310.844 183.347 311.345 184.284 312.081 185.019C312.816 185.754 313.754 186.254 314.774 186.457C315.794 186.66 316.852 186.556 317.813 186.158C318.774 185.76 319.596 185.087 320.174 184.222C320.752 183.358 321.06 182.342 321.06 181.302C321.06 179.908 320.506 178.571 319.519 177.585C318.533 176.6 317.195 176.046 315.8 176.046Z" fill="#FFDF02"/>
<path fill-rule="evenodd" clip-rule="evenodd" d="M6.95867 120.02C5.58251 120.019 4.23717 120.427 3.09281 121.191C1.94846 121.954 1.0565 123.04 0.529729 124.311C0.00295925 125.581 -0.134948 126.979 0.133456 128.328C0.401859 129.677 1.0645 130.916 2.0376 131.888C3.01069 132.86 4.25052 133.523 5.60025 133.791C6.94998 134.059 8.34898 133.921 9.62034 133.395C10.8917 132.868 11.9783 131.977 12.7426 130.834C13.507 129.69 13.9148 128.346 13.9146 126.97C13.9146 125.127 13.1817 123.359 11.8772 122.055C10.5727 120.752 8.80348 120.02 6.95867 120.02Z" fill="#4185F5"/>
<path fill-rule="evenodd" clip-rule="evenodd" d="M149.297 13.6094C148.556 13.6094 147.832 13.829 147.216 14.2404C146.6 14.6518 146.119 15.2365 145.836 15.9206C145.552 16.6048 145.478 17.3576 145.623 18.0838C145.767 18.8101 146.124 19.4772 146.648 20.0008C147.172 20.5245 147.839 20.881 148.566 21.0255C149.293 21.17 150.046 21.0958 150.731 20.8125C151.416 20.5291 152.001 20.0492 152.413 19.4335C152.824 18.8178 153.044 18.0939 153.044 17.3534C153.044 16.3604 152.649 15.4081 151.947 14.706C151.244 14.0038 150.291 13.6094 149.297 13.6094Z" fill="#4185F5"/>
<path fill-rule="evenodd" clip-rule="evenodd" d="M52.095 289.42C51.3252 289.42 50.5727 289.648 49.9326 290.075C49.2926 290.503 48.7936 291.11 48.499 291.821C48.2045 292.532 48.1274 293.314 48.2776 294.068C48.4277 294.823 48.7984 295.516 49.3428 296.06C49.8871 296.604 50.5807 296.974 51.3357 297.124C52.0907 297.274 52.8733 297.197 53.5845 296.903C54.2958 296.608 54.9036 296.11 55.3313 295.47C55.759 294.831 55.9873 294.079 55.9873 293.309C55.9875 292.799 55.887 292.293 55.6914 291.821C55.4959 291.349 55.2092 290.92 54.8477 290.559C54.4863 290.197 54.0571 289.911 53.5848 289.716C53.1124 289.52 52.6062 289.42 52.095 289.42Z" fill="#FFDF02"/>
<path fill-rule="evenodd" clip-rule="evenodd" d="M184.605 337.387C184.099 337.386 183.604 337.536 183.183 337.817C182.761 338.098 182.433 338.498 182.239 338.965C182.045 339.432 181.994 339.947 182.093 340.443C182.191 340.94 182.435 341.396 182.793 341.754C183.151 342.112 183.607 342.355 184.104 342.454C184.601 342.553 185.115 342.502 185.583 342.309C186.051 342.115 186.451 341.787 186.733 341.367C187.014 340.946 187.164 340.451 187.164 339.945C187.164 339.609 187.098 339.277 186.97 338.966C186.841 338.656 186.653 338.374 186.415 338.136C186.178 337.899 185.895 337.71 185.585 337.581C185.274 337.453 184.942 337.387 184.605 337.387Z" fill="#FFDF02"/>
<path fill-rule="evenodd" clip-rule="evenodd" d="M288.37 357.386C288.047 357.386 287.731 357.481 287.462 357.661C287.194 357.84 286.984 358.095 286.861 358.393C286.737 358.692 286.705 359.02 286.768 359.337C286.831 359.653 286.986 359.944 287.215 360.172C287.443 360.401 287.734 360.556 288.051 360.619C288.368 360.682 288.697 360.65 288.995 360.526C289.294 360.403 289.549 360.193 289.728 359.925C289.908 359.657 290.003 359.341 290.003 359.018C290.003 358.585 289.831 358.17 289.525 357.864C289.219 357.558 288.803 357.386 288.37 357.386Z" fill="#CAE2FE"/>
<path fill-rule="evenodd" clip-rule="evenodd" d="M411.446 249.502C410.526 249.502 409.626 249.775 408.861 250.285C408.096 250.796 407.5 251.522 407.148 252.372C406.795 253.222 406.703 254.156 406.883 255.058C407.062 255.96 407.505 256.789 408.156 257.439C408.807 258.089 409.636 258.532 410.538 258.711C411.441 258.891 412.376 258.798 413.227 258.447C414.077 258.095 414.803 257.499 415.315 256.734C415.826 255.97 416.099 255.071 416.099 254.151C416.099 253.541 415.979 252.936 415.745 252.372C415.511 251.808 415.168 251.295 414.736 250.863C414.304 250.431 413.791 250.089 413.227 249.855C412.662 249.622 412.057 249.502 411.446 249.502Z" fill="#4185F5"/>
<path fill-rule="evenodd" clip-rule="evenodd" d="M305.882 0C305.602 1.53953e-07 305.328 0.082906 305.096 0.238237C304.863 0.393567 304.681 0.614352 304.574 0.87268C304.467 1.13101 304.439 1.41528 304.493 1.68957C304.548 1.96386 304.683 2.21585 304.88 2.4137C305.078 2.61154 305.33 2.74634 305.605 2.80108C305.879 2.85582 306.164 2.82802 306.422 2.72121C306.681 2.6144 306.902 2.43337 307.058 2.201C307.213 1.96862 307.297 1.69534 307.297 1.4157C307.297 1.04049 307.148 0.680628 306.882 0.415175C306.617 0.149722 306.257 0.000393302 305.882 0Z" fill="#CAE2FE"/>
<path fill-rule="evenodd" clip-rule="evenodd" d="M143.544 234.785C142.448 234.785 141.376 235.109 140.465 235.718C139.553 236.326 138.843 237.191 138.423 238.203C138.003 239.215 137.893 240.328 138.107 241.403C138.321 242.477 138.848 243.464 139.623 244.239C140.398 245.014 141.386 245.541 142.461 245.755C143.536 245.969 144.651 245.859 145.663 245.44C146.676 245.021 147.542 244.311 148.151 243.4C148.76 242.49 149.085 241.419 149.085 240.323C149.085 238.855 148.501 237.446 147.462 236.408C146.423 235.369 145.014 234.786 143.544 234.785Z" fill="#FFDF02"/>
</svg>
