<svg width="84" height="84" viewBox="0 0 84 84" fill="none" xmlns="http://www.w3.org/2000/svg">
<g clip-path="url(#clip0_29449_12462)">
<path d="M75.4688 14.4375C73.9028 14.4392 72.4016 15.0621 71.2943 16.1693C70.1871 17.2766 69.5642 18.7778 69.5625 20.3438V43.6196C68.508 43.2439 67.3689 43.1729 66.2758 43.4145C65.1828 43.6561 64.1799 44.2007 63.3819 44.9859L46.1619 62.0681C46.0379 62.1897 45.9393 62.3346 45.8717 62.4946C45.8041 62.6546 45.7689 62.8263 45.7682 63V74.8125H44.625C44.2769 74.8125 43.9431 74.9508 43.6969 75.1969C43.4508 75.4431 43.3125 75.7769 43.3125 76.125V82.6875C43.3125 83.0356 43.4508 83.3694 43.6969 83.6156C43.9431 83.8617 44.2769 84 44.625 84H70.875C71.2231 84 71.5569 83.8617 71.8031 83.6156C72.0492 83.3694 72.1875 83.0356 72.1875 82.6875V76.125C72.1875 75.7769 72.0492 75.4431 71.8031 75.1969C71.5569 74.9508 71.2231 74.8125 70.875 74.8125H69.5625V70.1059L79.4535 60.2162C80.0647 59.6081 80.5493 58.8848 80.8791 58.0881C81.2089 57.2915 81.3775 56.4374 81.375 55.5752V20.3438C81.3733 18.7778 80.7504 17.2766 79.6432 16.1693C78.5359 15.0621 77.0347 14.4392 75.4688 14.4375ZM69.5625 81.375H45.9375V77.4375H69.5625V81.375ZM78.75 55.5752C78.7515 56.0925 78.6504 56.605 78.4526 57.0831C78.2548 57.5611 77.9642 57.9952 77.5976 58.3603L67.3221 68.6346C67.0759 68.8806 66.9376 69.2144 66.9375 69.5625V74.8125H48.3984V63.5473L65.2313 46.8563C65.8625 46.255 66.704 45.9248 67.5757 45.9361C68.4474 45.9475 69.28 46.2995 69.8954 46.917C70.5107 47.5344 70.86 48.3682 70.8685 49.2399C70.8769 50.1116 70.5438 50.952 69.9405 51.5812L59.4471 62.0747C59.208 62.3222 59.0757 62.6538 59.0787 62.9979C59.0817 63.342 59.2197 63.6712 59.463 63.9146C59.7064 64.1579 60.0356 64.296 60.3797 64.2989C60.7239 64.3019 61.0554 64.1696 61.3029 63.9306L71.7938 53.4345C72.8304 52.3919 73.4443 51.0023 73.517 49.5339C73.5897 48.0654 73.1161 46.622 72.1875 45.4821V20.3438C72.1875 19.4735 72.5332 18.6389 73.1486 18.0236C73.7639 17.4082 74.5985 17.0625 75.4688 17.0625C76.339 17.0625 77.1736 17.4082 77.7889 18.0236C78.4043 18.6389 78.75 19.4735 78.75 20.3438V55.5752Z" fill="white"/>
<path d="M39.375 74.8125H38.2266V63C38.2259 62.8263 38.1907 62.6546 38.1231 62.4946C38.0555 62.3346 37.9569 62.1897 37.8328 62.0681L20.6181 44.9859C19.8202 44.2007 18.8174 43.6559 17.7243 43.414C16.6313 43.1721 15.4922 43.243 14.4375 43.6183V20.3438C14.4375 18.7773 13.8153 17.275 12.7076 16.1674C11.6 15.0598 10.0977 14.4375 8.53128 14.4375C6.96484 14.4375 5.46256 15.0598 4.35493 16.1674C3.24729 17.275 2.62503 18.7773 2.62503 20.3438V55.5752C2.62256 56.4374 2.79112 57.2915 3.12095 58.0881C3.45077 58.8848 3.93531 59.6081 4.54653 60.2162L14.4375 70.1059V74.8125H13.125C12.7769 74.8125 12.4431 74.9508 12.1969 75.1969C11.9508 75.4431 11.8125 75.7769 11.8125 76.125V82.6875C11.8125 83.0356 11.9508 83.3694 12.1969 83.6156C12.4431 83.8617 12.7769 84 13.125 84H39.375C39.7231 84 40.057 83.8617 40.3031 83.6156C40.5492 83.3694 40.6875 83.0356 40.6875 82.6875V76.125C40.6875 75.7769 40.5492 75.4431 40.3031 75.1969C40.057 74.9508 39.7231 74.8125 39.375 74.8125ZM16.678 68.6346L6.4024 58.3603C6.03583 57.9952 5.74525 57.5611 5.54746 57.0831C5.34966 56.605 5.24857 56.0925 5.25003 55.5752V20.3438C5.25003 19.4735 5.59573 18.6389 6.21108 18.0236C6.82644 17.4082 7.66103 17.0625 8.53128 17.0625C9.40152 17.0625 10.2361 17.4082 10.8515 18.0236C11.4668 18.6389 11.8125 19.4735 11.8125 20.3438V45.4821C10.8839 46.622 10.4103 48.0654 10.483 49.5339C10.5558 51.0023 11.1696 52.3919 12.2063 53.4345L22.6997 63.9279C22.9473 64.167 23.2788 64.2993 23.6229 64.2963C23.9671 64.2933 24.2963 64.1553 24.5396 63.912C24.783 63.6686 24.921 63.3394 24.924 62.9953C24.927 62.6511 24.7947 62.3196 24.5556 62.0721L14.0556 51.5786C13.4621 50.947 13.1375 50.1093 13.1505 49.2427C13.1635 48.3761 13.5132 47.5486 14.1254 46.9351C14.7377 46.3217 15.5645 45.9704 16.4311 45.9557C17.2977 45.941 18.136 46.2639 18.7688 46.8563L35.6016 63.5473V74.8125H17.0625V69.5625C17.0625 69.2144 16.9241 68.8806 16.678 68.6346ZM38.0625 81.375H14.4375V77.4375H38.0625V81.375Z" fill="white"/>
<path d="M62.5595 42.105C62.7072 41.9584 62.8179 41.7787 62.8825 41.5808C62.9471 41.383 62.9637 41.1726 62.9309 40.9671C62.7963 40.1462 62.4692 39.3688 61.9765 38.6986C61.4837 38.0284 60.8393 37.4843 60.0959 37.1109L54.443 34.2851L48.563 30.7571V26.1043C49.2705 25.3782 49.8536 24.5406 50.2889 23.625H53.813C54.8573 23.625 55.8588 23.2102 56.5972 22.4717C57.3357 21.7333 57.7505 20.7318 57.7505 19.6875V18.375C57.7488 17.8244 57.631 17.2803 57.4048 16.7782C57.1787 16.2762 56.8492 15.8274 56.438 15.4612V10.3911C56.4349 7.63614 55.3391 4.99495 53.3911 3.04692C51.443 1.0989 48.8019 0.00312645 46.0469 0L38.063 0C36.8993 0.0015028 35.769 0.38881 34.8489 1.1013C33.9289 1.81378 33.271 2.81123 32.9784 3.9375H32.813C31.4206 3.9375 30.0853 4.49062 29.1007 5.47519C28.1161 6.45975 27.563 7.79511 27.563 9.1875V15.4612C27.1517 15.8274 26.8223 16.2762 26.5962 16.7782C26.37 17.2803 26.2522 17.8244 26.2505 18.375V19.6875C26.2505 20.7318 26.6653 21.7333 27.4038 22.4717C28.1422 23.2102 29.1437 23.625 30.188 23.625H33.7121C34.1474 24.5406 34.7305 25.3782 35.438 26.1043V30.7571L29.558 34.2851L23.8985 37.1136C23.1567 37.4875 22.5138 38.0315 22.0222 38.7012C21.5307 39.3708 21.2044 40.1473 21.0701 40.9671C21.0373 41.1726 21.0539 41.383 21.1185 41.5808C21.1831 41.7787 21.2938 41.9584 21.4415 42.105L41.0817 61.5864C41.3275 61.8301 41.6596 61.9668 42.0057 61.9668C42.3519 61.9668 42.6839 61.8301 42.9297 61.5864L62.5595 42.105ZM60.1668 40.782L48.9567 51.9081L46.0692 44.6893L47.5957 41.6378L47.8936 41.8162C48.1446 41.967 48.4388 42.0296 48.7294 41.9939C49.0201 41.9582 49.2904 41.8264 49.4975 41.6194L54.0781 37.0387L58.9226 39.4616C59.4789 39.7427 59.9192 40.2099 60.1668 40.782ZM43.8144 43.3125H40.1866L38.6707 40.2793L42.0005 38.2804L45.3303 40.2793L43.8144 43.3125ZM48.563 19.6875C48.563 21.428 47.8716 23.0972 46.6409 24.3279C45.4102 25.5586 43.741 26.25 42.0005 26.25C40.26 26.25 38.5908 25.5586 37.3601 24.3279C36.1294 23.0972 35.438 21.428 35.438 19.6875V12.5199C39.6831 13.8524 44.1143 14.4958 48.563 14.4257V19.6875ZM38.063 27.9759C39.2913 28.5677 40.6371 28.875 42.0005 28.875C43.3639 28.875 44.7097 28.5677 45.938 27.9759V30.9566L42.0005 34.8941L38.063 30.9566V27.9759ZM48.3596 39.0351L44.1176 36.4875L47.4539 33.1498L51.6959 35.7L48.3596 39.0351ZM55.1255 19.6875C55.1255 20.0356 54.9872 20.3694 54.7411 20.6156C54.4949 20.8617 54.1611 21 53.813 21H51.083C51.1492 20.5656 51.1843 20.1269 51.188 19.6875V17.0625H53.813C54.1611 17.0625 54.4949 17.2008 54.7411 17.4469C54.9872 17.6931 55.1255 18.0269 55.1255 18.375V19.6875ZM30.188 9.1875C30.188 8.49131 30.4646 7.82363 30.9568 7.33134C31.4491 6.83906 32.1168 6.5625 32.813 6.5625H34.1255C34.4736 6.5625 34.8074 6.42422 35.0536 6.17808C35.2997 5.93194 35.438 5.5981 35.438 5.25C35.438 4.55381 35.7146 3.88613 36.2068 3.39384C36.6991 2.90156 37.3668 2.625 38.063 2.625H46.0469C48.106 2.62708 50.0801 3.44596 51.5361 4.90193C52.992 6.3579 53.8109 8.33201 53.813 10.3911V14.4375H51.188V13.125C51.188 12.7769 51.0497 12.4431 50.8036 12.1969C50.5574 11.9508 50.2236 11.8125 49.8755 11.8125C38.7678 11.8125 34.8789 9.42506 34.8539 9.408C34.6563 9.27612 34.4265 9.20038 34.1892 9.18885C33.9518 9.17732 33.7158 9.23044 33.5063 9.34254C33.2968 9.45464 33.1216 9.62152 32.9995 9.82536C32.8774 10.0292 32.813 10.2624 32.813 10.5V14.4375H30.188V9.1875ZM30.188 21C29.8399 21 29.5061 20.8617 29.2599 20.6156C29.0138 20.3694 28.8755 20.0356 28.8755 19.6875V18.375C28.8755 18.0269 29.0138 17.6931 29.2599 17.4469C29.5061 17.2008 29.8399 17.0625 30.188 17.0625H32.813V19.6875C32.8167 20.1269 32.8518 20.5656 32.918 21H30.188ZM36.5471 33.1524L39.8834 36.4875L35.6414 39.0324L32.3051 35.7L36.5471 33.1524ZM25.0784 39.459L29.9347 37.0348L34.5153 41.6154C34.7224 41.8225 34.9927 41.9543 35.2834 41.99C35.574 42.0256 35.8682 41.9631 36.1192 41.8123L36.4171 41.6338L37.9436 44.6854L35.0561 51.9041L23.8421 40.7781C24.0884 40.2081 24.5256 39.7417 25.0784 39.459ZM42.0005 58.8066L37.0721 53.9162L40.2641 45.9375H43.7369L46.9289 53.9162L42.0005 58.8066Z" fill="white"/>
</g>
<defs>
<clipPath id="clip0_29449_12462">
<rect width="84" height="84" fill="white"/>
</clipPath>
</defs>
</svg>
