<svg width="137" height="34" viewBox="0 0 137 34" fill="none" xmlns="http://www.w3.org/2000/svg">
<g clip-path="url(#clip0_29920_12499)">
<path d="M25.2779 0H4.95498C2.21842 0 0 2.20133 0 4.91681V25.0832C0 27.7987 2.21842 30 4.95498 30H25.2779C28.0145 30 30.2329 27.7987 30.2329 25.0832V4.91681C30.2329 2.20133 28.0145 0 25.2779 0Z" fill="#4285F6"/>
<path d="M5.89043 21.3152C4.93965 21.0675 4.16709 20.7372 3.57275 20.3243L4.73122 17.7416C5.28947 18.1078 5.93757 18.4023 6.67477 18.6259C7.41125 18.8502 8.13667 18.9621 8.84958 18.9621C10.2047 18.9621 10.8822 18.6259 10.8822 17.9536C10.8822 17.5999 10.6885 17.3375 10.3026 17.1665C9.91599 16.9955 9.29514 16.8157 8.43936 16.6272C7.50036 16.4269 6.71602 16.2113 6.08633 15.9811C5.45665 15.7509 4.91534 15.3826 4.46389 14.8754C4.01243 14.3683 3.78633 13.6842 3.78633 12.8234C3.78633 12.0684 3.99402 11.3873 4.41012 10.78C4.82623 10.1727 5.44708 9.69188 6.2734 9.33818C7.09898 8.98447 8.11237 8.80762 9.31282 8.80762C10.1332 8.80762 10.9412 8.89897 11.7373 9.08167C12.5334 9.2651 13.2345 9.53257 13.8406 9.88628L12.7529 12.4865C11.5642 11.8499 10.4116 11.5313 9.29441 11.5313C8.59328 11.5313 8.08217 11.6343 7.76107 11.8412C7.43997 12.0472 7.28015 12.3162 7.28015 12.6458C7.28015 12.9754 7.47016 13.2238 7.85092 13.389C8.23094 13.5542 8.84295 13.7252 9.68695 13.902C10.6377 14.103 11.425 14.3178 12.0488 14.5473C12.6726 14.7775 13.2132 15.1429 13.6713 15.6442C14.1286 16.1456 14.3577 16.8267 14.3577 17.6875C14.3577 18.4308 14.15 19.1031 13.7339 19.7046C13.3178 20.306 12.694 20.7869 11.8617 21.1464C11.0295 21.506 10.0191 21.6857 8.83117 21.6857C7.82073 21.6857 6.84048 21.5622 5.8897 21.3145L5.89043 21.3152Z" fill="#FFDF01"/>
<path d="M19.8493 18.0774L18.8514 19.0859V21.4384H15.4644V8.3125H18.8514V15.1937L22.3099 11.8503H26.3214L22.3099 15.9545L26.6595 21.4384H22.5595L19.8493 18.0774Z" fill="#FFDF01"/>
<path d="M54.5546 3.3584H49.9082V16.5106H54.5546V3.3584Z" fill="#4285F6"/>
<path d="M76.2948 3.3584H71.6484V16.5106H76.2948V3.3584Z" fill="#4285F6"/>
<path d="M83.8514 11.9007L82.4823 13.2841V16.5113H77.8359V-1.49414H82.4823V7.94485L87.2267 3.35836H92.7289L87.2267 8.9877L93.1936 16.5105H87.5692L83.8522 11.8999L83.8514 11.9007Z" fill="#4285F6"/>
<path d="M106.032 11.0997H96.3963C96.5922 11.7794 96.9707 12.3012 97.5334 12.6651C98.0961 13.0291 98.8009 13.211 99.6486 13.211C100.284 13.211 100.834 13.1226 101.299 12.9443C101.764 12.7667 102.232 12.4751 102.705 12.071L105.151 14.5944C103.863 16.018 101.979 16.7298 99.502 16.7298C97.9532 16.7298 96.5922 16.4382 95.4183 15.8565C94.2443 15.2741 93.3355 14.4651 92.6918 13.4295C92.0474 12.3947 91.7256 11.2211 91.7256 9.91074C91.7256 8.60042 92.0393 7.45599 92.6668 6.42849C93.2943 5.40172 94.1626 4.59637 95.271 4.01393C96.3794 3.43148 97.6269 3.14062 99.0122 3.14062C100.398 3.14062 101.531 3.41175 102.607 3.95327C103.683 4.49552 104.535 5.27967 105.163 6.30717C105.79 7.33468 106.104 8.55219 106.104 9.9597C106.104 9.99259 106.079 10.3719 106.03 11.1005L106.032 11.0997ZM97.2403 7.02336C96.7594 7.42822 96.4537 7.97778 96.3234 8.6735H101.753C101.622 7.97851 101.316 7.42822 100.836 7.02336C100.355 6.61923 99.7553 6.41679 99.038 6.41679C98.3207 6.41679 97.7212 6.61923 97.2403 7.02336Z" fill="#4285F6"/>
<path d="M113.682 3.58934C114.44 3.29044 115.309 3.14062 116.287 3.14062V7.2901C115.862 7.24187 115.512 7.21702 115.235 7.21702C114.24 7.21702 113.462 7.48376 112.9 8.01797C112.337 8.55146 112.056 9.36922 112.056 10.4691V16.5113H107.409V3.35913H111.835V4.9362C112.308 4.33767 112.924 3.88896 113.682 3.58934H113.682Z" fill="#4285F6"/>
<path d="M113.863 20.5522L115.037 17.276C115.461 17.5347 115.942 17.6641 116.48 17.6641C116.903 17.6641 117.238 17.5186 117.482 17.227C117.727 16.9362 117.849 16.5072 117.849 15.9408V3.15332H122.495V15.9657C122.495 17.5829 122.018 18.8655 121.064 19.8119C120.111 20.7582 118.786 21.2318 117.09 21.2318C115.737 21.2318 114.661 21.0053 113.862 20.5522H113.863Z" fill="#4285F6"/>
<path d="M117.878 1.19844C117.355 0.729263 117.095 0.146817 117.095 -0.548903C117.095 -1.24462 117.355 -1.82707 117.878 -2.29624C118.399 -2.76541 119.084 -3 119.932 -3C120.779 -3 121.463 -2.77711 121.986 -2.33278C122.507 -1.88773 122.769 -1.3177 122.769 -0.621983C122.769 0.0737369 122.508 0.7088 121.986 1.18601C121.463 1.66322 120.779 1.90219 119.932 1.90219C119.084 1.90219 118.399 1.66761 117.878 1.19844Z" fill="#FFDF01"/>
<path d="M135.264 4.54112C136.421 5.53573 137.001 7.06091 137.001 9.11518V16.4195H132.673V14.7211C132.004 15.9993 130.7 16.638 128.76 16.638C127.732 16.638 126.844 16.4597 126.095 16.1045C125.344 15.7486 124.778 15.267 124.395 14.6605C124.012 14.0539 123.82 13.3626 123.82 12.5857C123.82 11.3405 124.301 10.3736 125.263 9.68594C126.225 8.99826 127.709 8.65478 129.714 8.65478H132.355C132.273 7.26334 131.335 6.56762 129.542 6.56762C128.906 6.56762 128.262 6.66847 127.61 6.8709C126.958 7.07333 126.404 7.3525 125.947 7.7084L124.382 4.57766C125.116 4.09241 126.008 3.71605 127.06 3.44931C128.112 3.18256 129.167 3.04883 130.227 3.04883C132.428 3.04883 134.107 3.5465 135.264 4.54112ZM131.474 13.3377C131.881 13.079 132.174 12.699 132.354 12.197V11.0562H130.348C128.995 11.0562 128.319 11.5012 128.319 12.3906C128.319 12.7955 128.473 13.1185 128.783 13.3611C129.093 13.6037 129.517 13.7251 130.055 13.7251C130.594 13.7251 131.066 13.5957 131.474 13.337V13.3377Z" fill="#4285F6"/>
<path d="M124.117 21.1178C124.008 21.0125 123.953 20.8795 123.953 20.7187C123.953 20.558 124.007 20.4213 124.114 20.3197C124.222 20.2182 124.357 20.167 124.519 20.167C124.681 20.167 124.82 20.2174 124.926 20.3197C125.032 20.422 125.085 20.5543 125.085 20.7187C125.085 20.8832 125.031 21.0125 124.924 21.1178C124.816 21.223 124.682 21.2756 124.519 21.2756C124.357 21.2756 124.227 21.223 124.118 21.1178H124.117Z" fill="#4285F6"/>
<path d="M126.124 21.0712C125.834 20.9184 125.607 20.7058 125.442 20.4339C125.276 20.1613 125.193 19.8529 125.193 19.5087C125.193 19.1645 125.276 18.8554 125.442 18.5828C125.607 18.3109 125.834 18.0983 126.124 17.9455C126.413 17.7928 126.739 17.7168 127.103 17.7168C127.42 17.7168 127.707 17.7723 127.961 17.8842C128.215 17.996 128.427 18.1567 128.596 18.3665L127.971 18.9277C127.746 18.6588 127.473 18.5243 127.152 18.5243C126.964 18.5243 126.796 18.5653 126.649 18.6471C126.501 18.729 126.387 18.8444 126.306 18.9942C126.225 19.144 126.185 19.3151 126.185 19.5087C126.185 19.7024 126.225 19.8741 126.306 20.0232C126.387 20.1723 126.501 20.2885 126.649 20.3703C126.796 20.4522 126.964 20.4931 127.152 20.4931C127.473 20.4931 127.746 20.3586 127.971 20.0897L128.596 20.651C128.427 20.8614 128.216 21.0215 127.961 21.1333C127.706 21.2451 127.42 21.3006 127.103 21.3006C126.739 21.3006 126.413 21.2239 126.124 21.0719V21.0712Z" fill="#4285F6"/>
<path d="M129.621 21.0685C129.328 20.9143 129.098 20.7009 128.931 20.4283C128.764 20.1557 128.681 19.8488 128.681 19.5075C128.681 19.1662 128.765 18.8593 128.931 18.5867C129.098 18.3141 129.328 18.1007 129.621 17.9465C129.914 17.7923 130.243 17.7148 130.611 17.7148C130.978 17.7148 131.308 17.7916 131.601 17.9465C131.894 18.1007 132.123 18.3141 132.291 18.5867C132.458 18.8593 132.541 19.1662 132.541 19.5075C132.541 19.8488 132.457 20.1557 132.291 20.4283C132.124 20.7009 131.894 20.9143 131.601 21.0685C131.308 21.2227 130.978 21.3001 130.611 21.3001C130.243 21.3001 129.914 21.2234 129.621 21.0685ZM131.087 20.3698C131.229 20.288 131.342 20.1718 131.424 20.0227C131.507 19.8736 131.548 19.7019 131.548 19.5082C131.548 19.3146 131.507 19.1428 131.424 18.9937C131.342 18.8447 131.229 18.7292 131.087 18.6466C130.945 18.5648 130.786 18.5238 130.61 18.5238C130.434 18.5238 130.276 18.5648 130.134 18.6466C129.992 18.7285 129.879 18.8439 129.796 18.9937C129.714 19.1436 129.673 19.3146 129.673 19.5082C129.673 19.7019 129.714 19.8736 129.796 20.0227C129.879 20.1718 129.992 20.288 130.134 20.3698C130.276 20.4517 130.434 20.4926 130.61 20.4926C130.786 20.4926 130.945 20.4517 131.087 20.3698Z" fill="#4285F6"/>
<path d="M136.093 21.2316L136.083 19.4053L135.19 20.8918H134.753L133.865 19.4543V21.2316H132.957V17.7852H133.766L134.986 19.7737L136.176 17.7852H136.985L136.994 21.2316H136.091H136.093Z" fill="#4285F6"/>
<path d="M68.728 4.62129C69.7303 5.58668 70.2311 7.04389 70.2311 8.99147V16.4763H65.5869V9.7398C65.5869 7.953 64.8615 7.05997 63.4114 7.05997C62.6131 7.05997 61.9731 7.31794 61.4922 7.83242C61.0112 8.34763 60.7711 9.12009 60.7711 10.1505V16.4763H56.127V3.3899H60.5517V4.81422C61.0731 4.28293 61.6917 3.87661 62.4091 3.59525C63.1264 3.3139 63.9085 3.17285 64.7562 3.17285C66.4022 3.17285 67.7264 3.65591 68.7287 4.62129H68.728Z" fill="#4285F6"/>
<path d="M38.4817 16.3504C37.3733 16.0924 36.4822 15.7548 35.8105 15.3375L37.2467 12.0869C37.8682 12.4706 38.6077 12.7746 39.4642 12.9997C40.3207 13.2247 41.1691 13.3373 42.0094 13.3373C42.782 13.3373 43.3321 13.2584 43.6599 13.0998C43.9876 12.9419 44.1511 12.7125 44.1511 12.4121C44.1511 12.1117 43.9537 11.8998 43.559 11.7748C43.1642 11.6499 42.5382 11.5293 41.6817 11.4124C40.5895 11.2794 39.6616 11.104 38.8971 10.8877C38.1326 10.6713 37.4735 10.2709 36.9189 9.68768C36.3644 9.1045 36.0875 8.28747 36.0875 7.23731C36.0875 6.37059 36.3474 5.5996 36.8689 4.92434C37.3895 4.24908 38.1496 3.71633 39.149 3.32389C40.1484 2.93218 41.3451 2.73633 42.74 2.73633C43.7313 2.73633 44.7138 2.83645 45.6881 3.03669C46.6625 3.23692 47.477 3.52047 48.1325 3.8866L46.6963 7.11235C45.4871 6.44586 44.1769 6.11189 42.7658 6.11189C42.0102 6.11189 41.4556 6.19958 41.1028 6.37424C40.7501 6.5489 40.574 6.77837 40.574 7.06192C40.574 7.37909 40.767 7.59979 41.1537 7.72476C41.5396 7.84972 42.1781 7.97907 43.0685 8.11208C44.1938 8.2787 45.1262 8.4709 45.8656 8.68722C46.6043 8.90426 47.2472 9.29963 47.7929 9.87476C48.3387 10.4499 48.6119 11.2545 48.6119 12.2879C48.6119 13.1378 48.3512 13.9007 47.8305 14.576C47.3098 15.2512 46.5409 15.7803 45.5246 16.164C44.5083 16.547 43.2857 16.7392 41.8585 16.7392C40.7162 16.7392 39.5909 16.6098 38.4817 16.3518V16.3504Z" fill="#4285F6"/>
</g>
<path d="M36.811 28.2363V20.3623H42.209V21.6943H38.4009V23.5581H41.688V24.8901H38.4009V28.2363H36.811ZM43.165 25.3037C43.165 24.8024 43.2886 24.3172 43.5356 23.8481C43.7827 23.3791 44.1318 23.021 44.583 22.7739C45.0378 22.5269 45.5444 22.4033 46.103 22.4033C46.966 22.4033 47.6732 22.6844 48.2246 23.2466C48.776 23.8052 49.0518 24.5124 49.0518 25.3682C49.0518 26.2311 48.7725 26.9473 48.2139 27.5166C47.6589 28.0824 46.9588 28.3652 46.1138 28.3652C45.591 28.3652 45.0915 28.2471 44.6152 28.0107C44.1426 27.7744 43.7827 27.4289 43.5356 26.9741C43.2886 26.5158 43.165 25.959 43.165 25.3037ZM44.7119 25.3843C44.7119 25.95 44.8462 26.3833 45.1147 26.6841C45.3833 26.9849 45.7145 27.1353 46.1084 27.1353C46.5023 27.1353 46.8317 26.9849 47.0967 26.6841C47.3652 26.3833 47.4995 25.9465 47.4995 25.3735C47.4995 24.8149 47.3652 24.3853 47.0967 24.0845C46.8317 23.7837 46.5023 23.6333 46.1084 23.6333C45.7145 23.6333 45.3833 23.7837 45.1147 24.0845C44.8462 24.3853 44.7119 24.8185 44.7119 25.3843ZM51.6836 28.2363H50.1743V22.5322H51.5762V23.3433C51.8161 22.9601 52.0309 22.7077 52.2207 22.5859C52.4141 22.4642 52.6325 22.4033 52.876 22.4033C53.2197 22.4033 53.5509 22.4982 53.8696 22.688L53.4023 24.0039C53.1481 23.8392 52.9118 23.7568 52.6934 23.7568C52.4821 23.7568 52.3031 23.8159 52.1562 23.9341C52.0094 24.0487 51.8931 24.2581 51.8071 24.5625C51.7248 24.8669 51.6836 25.5042 51.6836 26.4746V28.2363ZM62.6353 25.3413L64.1768 25.8301C63.9404 26.6895 63.5465 27.3286 62.9951 27.7476C62.4473 28.1629 61.7508 28.3706 60.9058 28.3706C59.8602 28.3706 59.0008 28.0143 58.3276 27.3018C57.6545 26.5856 57.3179 25.6081 57.3179 24.3691C57.3179 23.0586 57.6562 22.0417 58.333 21.3184C59.0098 20.5915 59.8996 20.228 61.0024 20.228C61.9657 20.228 62.748 20.5127 63.3496 21.082C63.7077 21.4186 63.9762 21.902 64.1553 22.5322L62.5815 22.9082C62.4884 22.5 62.2933 22.1777 61.9961 21.9414C61.7025 21.7051 61.3444 21.5869 60.9219 21.5869C60.3382 21.5869 59.8638 21.7964 59.4985 22.2153C59.1369 22.6343 58.9561 23.3128 58.9561 24.251C58.9561 25.2464 59.1351 25.9554 59.4932 26.3779C59.8512 26.8005 60.3167 27.0117 60.8896 27.0117C61.3122 27.0117 61.6756 26.8774 61.98 26.6089C62.2843 26.3403 62.5028 25.9178 62.6353 25.3413ZM65.1865 25.3037C65.1865 24.8024 65.3101 24.3172 65.5571 23.8481C65.8042 23.3791 66.1533 23.021 66.6045 22.7739C67.0592 22.5269 67.5659 22.4033 68.1245 22.4033C68.9875 22.4033 69.6947 22.6844 70.2461 23.2466C70.7975 23.8052 71.0732 24.5124 71.0732 25.3682C71.0732 26.2311 70.7939 26.9473 70.2354 27.5166C69.6803 28.0824 68.9803 28.3652 68.1353 28.3652C67.6125 28.3652 67.113 28.2471 66.6367 28.0107C66.1641 27.7744 65.8042 27.4289 65.5571 26.9741C65.3101 26.5158 65.1865 25.959 65.1865 25.3037ZM66.7334 25.3843C66.7334 25.95 66.8677 26.3833 67.1362 26.6841C67.4048 26.9849 67.736 27.1353 68.1299 27.1353C68.5238 27.1353 68.8532 26.9849 69.1182 26.6841C69.3867 26.3833 69.521 25.9465 69.521 25.3735C69.521 24.8149 69.3867 24.3853 69.1182 24.0845C68.8532 23.7837 68.5238 23.6333 68.1299 23.6333C67.736 23.6333 67.4048 23.7837 67.1362 24.0845C66.8677 24.3853 66.7334 24.8185 66.7334 25.3843ZM72.1475 22.5322H73.5386V23.311C74.0363 22.7059 74.6289 22.4033 75.3164 22.4033C75.6816 22.4033 75.9985 22.4785 76.2671 22.6289C76.5356 22.7793 76.7559 23.0067 76.9277 23.311C77.1784 23.0067 77.4487 22.7793 77.7388 22.6289C78.0288 22.4785 78.3385 22.4033 78.668 22.4033C79.0869 22.4033 79.4414 22.4893 79.7314 22.6611C80.0215 22.8294 80.2381 23.0783 80.3813 23.4077C80.4852 23.6512 80.5371 24.0451 80.5371 24.5894V28.2363H79.0278V24.9761C79.0278 24.4103 78.9759 24.0451 78.8721 23.8804C78.7324 23.6655 78.5176 23.5581 78.2275 23.5581C78.0163 23.5581 77.8175 23.6226 77.6313 23.7515C77.4451 23.8804 77.3109 24.0701 77.2285 24.3208C77.1462 24.5679 77.105 24.96 77.105 25.4971V28.2363H75.5957V25.1104C75.5957 24.5553 75.5688 24.1973 75.5151 24.0361C75.4614 23.875 75.3773 23.755 75.2627 23.6763C75.1517 23.5975 74.9995 23.5581 74.8062 23.5581C74.5734 23.5581 74.3639 23.6208 74.1777 23.7461C73.9915 23.8714 73.8573 24.0522 73.7749 24.2886C73.6961 24.5249 73.6567 24.917 73.6567 25.4648V28.2363H72.1475V22.5322ZM82.0034 22.5322H83.4106V23.3701C83.5933 23.0837 83.8403 22.8509 84.1519 22.6719C84.4634 22.4928 84.8089 22.4033 85.1885 22.4033C85.8509 22.4033 86.4131 22.6629 86.875 23.1821C87.3369 23.7013 87.5679 24.4246 87.5679 25.3521C87.5679 26.3045 87.3351 27.0457 86.8696 27.5757C86.4041 28.1021 85.8402 28.3652 85.1777 28.3652C84.8626 28.3652 84.5762 28.3026 84.3184 28.1772C84.0641 28.0519 83.7956 27.8371 83.5127 27.5327V30.4062H82.0034V22.5322ZM83.4966 25.2876C83.4966 25.9285 83.6237 26.403 83.8779 26.7109C84.1322 27.0153 84.4419 27.1675 84.8071 27.1675C85.158 27.1675 85.4499 27.0278 85.6826 26.7485C85.9154 26.4657 86.0317 26.0037 86.0317 25.3628C86.0317 24.7648 85.9118 24.3208 85.6719 24.0308C85.432 23.7407 85.1348 23.5957 84.7803 23.5957C84.4115 23.5957 84.1053 23.7389 83.8618 24.0254C83.6183 24.3083 83.4966 24.729 83.4966 25.2876ZM89.8989 24.2725L88.5293 24.0254C88.6833 23.474 88.9482 23.0658 89.3242 22.8008C89.7002 22.5358 90.2588 22.4033 91 22.4033C91.6732 22.4033 92.1745 22.4839 92.5039 22.645C92.8333 22.8026 93.0643 23.0049 93.1968 23.252C93.3328 23.4954 93.4009 23.9448 93.4009 24.6001L93.3848 26.3618C93.3848 26.8631 93.408 27.2337 93.4546 27.4736C93.5047 27.71 93.596 27.9642 93.7285 28.2363H92.2354C92.196 28.1361 92.1476 27.9875 92.0903 27.7905C92.0653 27.701 92.0474 27.6419 92.0366 27.6133C91.7788 27.8639 91.5031 28.0519 91.2095 28.1772C90.9159 28.3026 90.6025 28.3652 90.2695 28.3652C89.6823 28.3652 89.2186 28.2059 88.8784 27.8872C88.5418 27.5685 88.3735 27.1657 88.3735 26.6787C88.3735 26.3564 88.4505 26.07 88.6045 25.8193C88.7585 25.5651 88.9733 25.3717 89.249 25.2393C89.5283 25.1032 89.9294 24.985 90.4521 24.8848C91.1576 24.7523 91.6463 24.6287 91.9185 24.5142V24.3638C91.9185 24.0737 91.8468 23.8678 91.7036 23.7461C91.5604 23.6208 91.29 23.5581 90.8926 23.5581C90.624 23.5581 90.4146 23.6118 90.2642 23.7192C90.1138 23.8231 89.992 24.0075 89.8989 24.2725ZM91.9185 25.4971C91.7251 25.5615 91.4189 25.6385 91 25.728C90.5811 25.8175 90.3071 25.9053 90.1782 25.9912C89.9813 26.1309 89.8828 26.3081 89.8828 26.5229C89.8828 26.7342 89.9616 26.9168 90.1191 27.0708C90.2767 27.2248 90.4772 27.3018 90.7207 27.3018C90.9928 27.3018 91.2524 27.2122 91.4995 27.0332C91.6821 26.8971 91.8021 26.7306 91.8594 26.5337C91.8988 26.4048 91.9185 26.1595 91.9185 25.7979V25.4971ZM100.083 28.2363H98.5732V25.3252C98.5732 24.7093 98.541 24.3118 98.4766 24.1328C98.4121 23.9502 98.3065 23.8088 98.1597 23.7085C98.0164 23.6082 97.8428 23.5581 97.6387 23.5581C97.3773 23.5581 97.1427 23.6297 96.9351 23.7729C96.7274 23.9162 96.5841 24.106 96.5054 24.3423C96.4302 24.5786 96.3926 25.0155 96.3926 25.6528V28.2363H94.8833V22.5322H96.2852V23.3701C96.7829 22.7256 97.4095 22.4033 98.165 22.4033C98.498 22.4033 98.8024 22.4642 99.0781 22.5859C99.3538 22.7041 99.5615 22.8563 99.7012 23.0425C99.8444 23.2287 99.9429 23.4399 99.9966 23.6763C100.054 23.9126 100.083 24.251 100.083 24.6914V28.2363ZM100.904 22.5322H102.51L103.875 26.582L105.207 22.5322H106.77L104.755 28.0215L104.396 29.0151C104.263 29.3481 104.136 29.6024 104.014 29.7778C103.896 29.9533 103.758 30.0947 103.601 30.2021C103.447 30.3132 103.255 30.3991 103.026 30.46C102.8 30.5208 102.544 30.5513 102.258 30.5513C101.968 30.5513 101.683 30.5208 101.404 30.46L101.27 29.2783C101.506 29.3249 101.719 29.3481 101.909 29.3481C102.26 29.3481 102.519 29.2443 102.688 29.0366C102.856 28.8325 102.985 28.5711 103.074 28.2524L100.904 22.5322Z" fill="#4185F5"/>
<defs>
<clipPath id="clip0_29920_12499">
<rect width="137" height="30" fill="white"/>
</clipPath>
</defs>
</svg>
