<svg width="84" height="84" viewBox="0 0 84 84" fill="none" xmlns="http://www.w3.org/2000/svg">
<path d="M11.8125 72.1875C13.37 72.1875 14.8926 71.7256 16.1876 70.8603C17.4827 69.995 18.492 68.7651 19.0881 67.3261C19.6841 65.8872 19.84 64.3038 19.5362 62.7762C19.2323 61.2486 18.4823 59.8454 17.381 58.744C16.2796 57.6427 14.8764 56.8927 13.3488 56.5888C11.8212 56.285 10.2378 56.4409 8.79887 57.037C7.3599 57.633 6.12999 58.6424 5.26468 59.9374C4.39936 61.2324 3.9375 62.755 3.9375 64.3125C3.93958 66.4004 4.76994 68.4023 6.24634 69.8787C7.72273 71.3551 9.72456 72.1854 11.8125 72.1875ZM11.8125 59.0625C12.8509 59.0625 13.8659 59.3704 14.7292 59.9473C15.5926 60.5242 16.2655 61.3441 16.6629 62.3034C17.0602 63.2627 17.1642 64.3183 16.9616 65.3367C16.7591 66.3551 16.259 67.2906 15.5248 68.0248C14.7906 68.759 13.8551 69.2591 12.8367 69.4616C11.8183 69.6642 10.7627 69.5602 9.80341 69.1629C8.8441 68.7655 8.02416 68.0926 7.44728 67.2292C6.87041 66.3659 6.5625 65.3509 6.5625 64.3125C6.5625 62.9201 7.11562 61.5848 8.10019 60.6002C9.08475 59.6156 10.4201 59.0625 11.8125 59.0625Z" fill="white"/>
<path d="M18.375 73.5H5.25C3.85761 73.5 2.52226 74.0531 1.53769 75.0377C0.553123 76.0223 0 77.3576 0 78.75L0 82.6875C0 83.0356 0.138281 83.3694 0.384422 83.6156C0.630564 83.8617 0.964403 84 1.3125 84H22.3125C22.6606 84 22.9944 83.8617 23.2406 83.6156C23.4867 83.3694 23.625 83.0356 23.625 82.6875V78.75C23.625 77.3576 23.0719 76.0223 22.0873 75.0377C21.1027 74.0531 19.7674 73.5 18.375 73.5ZM21 81.375H2.625V78.75C2.625 78.0538 2.90156 77.3861 3.39384 76.8938C3.88613 76.4016 4.55381 76.125 5.25 76.125H18.375C19.0712 76.125 19.7389 76.4016 20.2312 76.8938C20.7234 77.3861 21 78.0538 21 78.75V81.375Z" fill="white"/>
<path d="M34.125 64.3125C34.125 65.87 34.5869 67.3926 35.4522 68.6876C36.3175 69.9827 37.5474 70.992 38.9864 71.5881C40.4253 72.1841 42.0087 72.34 43.5363 72.0362C45.0639 71.7323 46.4671 70.9823 47.5685 69.881C48.6698 68.7796 49.4198 67.3764 49.7237 65.8488C50.0275 64.3212 49.8716 62.7378 49.2756 61.2989C48.6795 59.8599 47.6702 58.63 46.3751 57.7647C45.0801 56.8994 43.5575 56.4375 42 56.4375C39.9121 56.4396 37.9102 57.2699 36.4338 58.7463C34.9574 60.2227 34.1271 62.2246 34.125 64.3125ZM47.25 64.3125C47.25 65.3509 46.9421 66.3659 46.3652 67.2292C45.7883 68.0926 44.9684 68.7655 44.0091 69.1629C43.0498 69.5602 41.9942 69.6642 40.9758 69.4616C39.9574 69.2591 39.0219 68.759 38.2877 68.0248C37.5535 67.2906 37.0534 66.3551 36.8509 65.3367C36.6483 64.3183 36.7523 63.2627 37.1496 62.3034C37.547 61.3441 38.2199 60.5242 39.0833 59.9473C39.9466 59.3704 40.9616 59.0625 42 59.0625C43.3924 59.0625 44.7277 59.6156 45.7123 60.6002C46.6969 61.5848 47.25 62.9201 47.25 64.3125Z" fill="white"/>
<path d="M48.5625 73.5H35.4375C34.0451 73.5 32.7098 74.0531 31.7252 75.0377C30.7406 76.0223 30.1875 77.3576 30.1875 78.75V82.6875C30.1875 83.0356 30.3258 83.3694 30.5719 83.6156C30.8181 83.8617 31.1519 84 31.5 84H52.5C52.8481 84 53.1819 83.8617 53.4281 83.6156C53.6742 83.3694 53.8125 83.0356 53.8125 82.6875V78.75C53.8125 77.3576 53.2594 76.0223 52.2748 75.0377C51.2902 74.0531 49.9549 73.5 48.5625 73.5ZM51.1875 81.375H32.8125V78.75C32.8125 78.0538 33.0891 77.3861 33.5813 76.8938C34.0736 76.4016 34.7413 76.125 35.4375 76.125H48.5625C49.2587 76.125 49.9264 76.4016 50.4187 76.8938C50.9109 77.3861 51.1875 78.0538 51.1875 78.75V81.375Z" fill="white"/>
<path d="M64.3125 64.3125C64.3125 65.87 64.7744 67.3926 65.6397 68.6876C66.505 69.9827 67.7349 70.992 69.1739 71.5881C70.6128 72.1841 72.1962 72.34 73.7238 72.0362C75.2514 71.7323 76.6546 70.9823 77.756 69.881C78.8573 68.7796 79.6073 67.3764 79.9112 65.8488C80.215 64.3212 80.0591 62.7378 79.4631 61.2989C78.867 59.8599 77.8577 58.63 76.5626 57.7647C75.2676 56.8994 73.745 56.4375 72.1875 56.4375C70.0996 56.4396 68.0977 57.2699 66.6213 58.7463C65.1449 60.2227 64.3146 62.2246 64.3125 64.3125ZM77.4375 64.3125C77.4375 65.3509 77.1296 66.3659 76.5527 67.2292C75.9758 68.0926 75.1559 68.7655 74.1966 69.1629C73.2373 69.5602 72.1817 69.6642 71.1633 69.4616C70.1449 69.2591 69.2094 68.759 68.4752 68.0248C67.741 67.2906 67.2409 66.3551 67.0384 65.3367C66.8358 64.3183 66.9398 63.2627 67.3371 62.3034C67.7345 61.3441 68.4074 60.5242 69.2708 59.9473C70.1341 59.3704 71.1491 59.0625 72.1875 59.0625C73.5799 59.0625 74.9152 59.6156 75.8998 60.6002C76.8844 61.5848 77.4375 62.9201 77.4375 64.3125Z" fill="white"/>
<path d="M78.75 73.5H65.625C64.2326 73.5 62.8973 74.0531 61.9127 75.0377C60.9281 76.0223 60.375 77.3576 60.375 78.75V82.6875C60.375 83.0356 60.5133 83.3694 60.7594 83.6156C61.0056 83.8617 61.3394 84 61.6875 84H82.6875C83.0356 84 83.3694 83.8617 83.6156 83.6156C83.8617 83.3694 84 83.0356 84 82.6875V78.75C84 77.3576 83.4469 76.0223 82.4623 75.0377C81.4777 74.0531 80.1424 73.5 78.75 73.5ZM81.375 81.375H63V78.75C63 78.0538 63.2766 77.3861 63.7688 76.8938C64.2611 76.4016 64.9288 76.125 65.625 76.125H78.75C79.4462 76.125 80.1139 76.4016 80.6062 76.8938C81.0984 77.3861 81.375 78.0538 81.375 78.75V81.375Z" fill="white"/>
<path d="M28.875 32.8125H55.125C56.1693 32.8125 57.1708 32.3977 57.9092 31.6592C58.6477 30.9208 59.0625 29.9193 59.0625 28.875V13.125C59.0625 12.0807 58.6477 11.0792 57.9092 10.3408C57.1708 9.60234 56.1693 9.1875 55.125 9.1875H52.5V5.25C52.5 3.85761 51.9469 2.52226 50.9623 1.53769C49.9777 0.553123 48.6424 0 47.25 0L36.75 0C35.3576 0 34.0223 0.553123 33.0377 1.53769C32.0531 2.52226 31.5 3.85761 31.5 5.25V9.1875H28.875C27.8307 9.1875 26.8292 9.60234 26.0908 10.3408C25.3523 11.0792 24.9375 12.0807 24.9375 13.125V28.875C24.9375 29.9193 25.3523 30.9208 26.0908 31.6592C26.8292 32.3977 27.8307 32.8125 28.875 32.8125ZM55.125 30.1875H28.875C28.5269 30.1875 28.1931 30.0492 27.9469 29.8031C27.7008 29.5569 27.5625 29.2231 27.5625 28.875V18.7359L38.0625 21.3084V23.625C38.0625 23.9731 38.2008 24.3069 38.4469 24.5531C38.6931 24.7992 39.0269 24.9375 39.375 24.9375H44.625C44.9731 24.9375 45.3069 24.7992 45.5531 24.5531C45.7992 24.3069 45.9375 23.9731 45.9375 23.625V21.3084L56.4375 18.7359V28.875C56.4375 29.2231 56.2992 29.5569 56.0531 29.8031C55.8069 30.0492 55.4731 30.1875 55.125 30.1875ZM40.6875 22.3125V18.375H43.3125V22.3125H40.6875ZM34.125 5.25C34.125 4.55381 34.4016 3.88613 34.8938 3.39384C35.3861 2.90156 36.0538 2.625 36.75 2.625H47.25C47.9462 2.625 48.6139 2.90156 49.1062 3.39384C49.5984 3.88613 49.875 4.55381 49.875 5.25V9.1875H48.5625V5.25C48.5625 4.9019 48.4242 4.56806 48.1781 4.32192C47.9319 4.07578 47.5981 3.9375 47.25 3.9375H36.75C36.4019 3.9375 36.0681 4.07578 35.8219 4.32192C35.5758 4.56806 35.4375 4.9019 35.4375 5.25V9.1875H34.125V5.25ZM45.9375 9.1875H38.0625V6.5625H45.9375V9.1875ZM28.875 11.8125H55.125C55.4731 11.8125 55.8069 11.9508 56.0531 12.1969C56.2992 12.4431 56.4375 12.7769 56.4375 13.125V16.0322L45.9375 18.6047V17.0625C45.9375 16.7144 45.7992 16.3806 45.5531 16.1344C45.3069 15.8883 44.9731 15.75 44.625 15.75H39.375C39.0269 15.75 38.6931 15.8883 38.4469 16.1344C38.2008 16.3806 38.0625 16.7144 38.0625 17.0625V18.6047L27.5625 16.0322V13.125C27.5625 12.7769 27.7008 12.4431 27.9469 12.1969C28.1931 11.9508 28.5269 11.8125 28.875 11.8125Z" fill="white"/>
<path d="M11.8125 55.125C12.1606 55.125 12.4944 54.9867 12.7406 54.7406C12.9867 54.4944 13.125 54.1606 13.125 53.8125V49.875C13.125 48.8307 13.5398 47.8292 14.2783 47.0908C15.0167 46.3523 16.0182 45.9375 17.0625 45.9375H40.6875V53.8125C40.6875 54.1606 40.8258 54.4944 41.0719 54.7406C41.3181 54.9867 41.6519 55.125 42 55.125C42.3481 55.125 42.6819 54.9867 42.9281 54.7406C43.1742 54.4944 43.3125 54.1606 43.3125 53.8125V45.9375H66.9375C67.9818 45.9375 68.9833 46.3523 69.7217 47.0908C70.4602 47.8292 70.875 48.8307 70.875 49.875V53.8125C70.875 54.1606 71.0133 54.4944 71.2594 54.7406C71.5056 54.9867 71.8394 55.125 72.1875 55.125C72.5356 55.125 72.8694 54.9867 73.1156 54.7406C73.3617 54.4944 73.5 54.1606 73.5 53.8125V49.875C73.4979 48.1352 72.8058 46.4672 71.5756 45.2369C70.3453 44.0067 68.6773 43.3146 66.9375 43.3125H43.3125V35.4375C43.3125 35.0894 43.1742 34.7556 42.9281 34.5094C42.6819 34.2633 42.3481 34.125 42 34.125C41.6519 34.125 41.3181 34.2633 41.0719 34.5094C40.8258 34.7556 40.6875 35.0894 40.6875 35.4375V43.3125H17.0625C15.3227 43.3146 13.6547 44.0067 12.4244 45.2369C11.1942 46.4672 10.5021 48.1352 10.5 49.875V53.8125C10.5 54.1606 10.6383 54.4944 10.8844 54.7406C11.1306 54.9867 11.4644 55.125 11.8125 55.125Z" fill="white"/>
</svg>
