<svg width="84" height="84" viewBox="0 0 84 84" fill="none" xmlns="http://www.w3.org/2000/svg">
<g clip-path="url(#clip0_29457_12887)">
<path d="M47.5912 57.5273H36.4219V76.1517H47.5912V57.5273Z" stroke="white" stroke-width="2" stroke-miterlimit="10" stroke-linecap="round"/>
<path d="M56.3591 77.4375V81.375H27.6416V77.4375H56.3591ZM56.3591 74.8125H27.6416C26.9454 74.8125 26.2777 75.0891 25.7854 75.5813C25.2932 76.0736 25.0166 76.7413 25.0166 77.4375V81.375C25.0166 82.0712 25.2932 82.7389 25.7854 83.2312C26.2777 83.7234 26.9454 84 27.6416 84H56.3591C57.0553 84 57.723 83.7234 58.2153 83.2312C58.7075 82.7389 58.9841 82.0712 58.9841 81.375V77.4375C58.9841 76.7413 58.7075 76.0736 58.2153 75.5813C57.723 75.0891 57.0553 74.8125 56.3591 74.8125Z" fill="white"/>
<path d="M10.3556 45.9375H34.125C35.4791 45.9375 36.7777 45.3995 37.7352 44.4421C38.6927 43.4846 39.2306 42.1859 39.2306 40.8318V25.5543C39.2306 24.2002 38.6927 22.9016 37.7352 21.9441C36.7777 20.9866 35.4791 20.4487 34.125 20.4487H30.765V17.0625C30.765 16.1609 30.4069 15.2962 29.7693 14.6587C29.1318 14.0212 28.2672 13.6631 27.3656 13.6631H17.1544C16.2528 13.6631 15.3882 14.0212 14.7507 14.6587C14.1131 15.2962 13.755 16.1609 13.755 17.0625V20.4618H10.3556C9.0038 20.4618 7.70715 20.9979 6.75004 21.9526C5.79292 22.9072 5.25348 24.2025 5.25 25.5543V40.8581C5.25694 42.2076 5.79791 43.4995 6.75465 44.4514C7.71139 45.4032 9.00606 45.9375 10.3556 45.9375ZM34.125 42.5643H10.3556C9.9031 42.5643 9.46911 42.3846 9.14912 42.0646C8.82914 41.7446 8.64938 41.3106 8.64938 40.8581V29.61L20.5538 33.5475V34.125C20.5911 34.55 20.7864 34.9455 21.101 35.2337C21.4156 35.5219 21.8268 35.6817 22.2534 35.6817C22.6801 35.6817 23.0912 35.5219 23.4059 35.2337C23.7205 34.9455 23.9157 34.55 23.9531 34.125V33.6525L35.8575 29.715V40.9631C35.8305 41.4017 35.6353 41.8131 35.3126 42.1114C34.9898 42.4097 34.5644 42.5719 34.125 42.5643ZM17.1544 17.0625H27.3656V20.4618H17.1544V17.0625ZM10.3556 23.8481H34.125C34.5752 23.8516 35.0059 24.0328 35.323 24.3525C35.6402 24.6721 35.8181 25.1041 35.8181 25.5543V26.0268L23.9137 29.9643V28.9143C23.8764 28.4893 23.6811 28.0938 23.3665 27.8056C23.0519 27.5174 22.6407 27.3576 22.2141 27.3576C21.7874 27.3576 21.3763 27.5174 21.0616 27.8056C20.747 28.0938 20.5518 28.4893 20.5144 28.9143V29.9643L8.61 26.0268V25.5543C8.60994 25.3269 8.65534 25.1018 8.74354 24.8922C8.83174 24.6825 8.96095 24.4927 9.12359 24.3337C9.28622 24.1747 9.47899 24.0499 9.69057 23.9665C9.90215 23.8831 10.1283 23.8428 10.3556 23.8481Z" fill="white"/>
<path d="M77.4379 23.0215H44.1791C43.8351 23.055 43.516 23.2154 43.2837 23.4713C43.0515 23.7273 42.9229 24.0606 42.9229 24.4062C42.9229 24.7518 43.0515 25.085 43.2837 25.341C43.516 25.597 43.8351 25.7573 44.1791 25.7909H77.4379C77.7819 25.7573 78.1011 25.597 78.3333 25.341C78.5655 25.085 78.6942 24.7518 78.6942 24.4062C78.6942 24.0606 78.5655 23.7273 78.3333 23.4713C78.1011 23.2154 77.7819 23.055 77.4379 23.0215Z" fill="white"/>
<path d="M77.4379 28.5596H44.1791C43.8351 28.5931 43.516 28.7535 43.2837 29.0094C43.0515 29.2654 42.9229 29.5986 42.9229 29.9443C42.9229 30.2899 43.0515 30.6231 43.2837 30.8791C43.516 31.1351 43.8351 31.2954 44.1791 31.3289H77.4379C77.7819 31.2954 78.1011 31.1351 78.3333 30.8791C78.5655 30.6231 78.6942 30.2899 78.6942 29.9443C78.6942 29.5986 78.5655 29.2654 78.3333 29.0094C78.1011 28.7535 77.7819 28.5931 77.4379 28.5596Z" fill="white"/>
<path d="M67.686 34.1247H44.1791C43.8351 34.1583 43.516 34.3186 43.2837 34.5746C43.0515 34.8306 42.9229 35.1638 42.9229 35.5094C42.9229 35.855 43.0515 36.1883 43.2837 36.4442C43.516 36.7002 43.8351 36.8606 44.1791 36.8941H67.686C67.8792 36.9129 68.0741 36.8911 68.2584 36.8301C68.4426 36.7691 68.6121 36.6702 68.7558 36.5398C68.8995 36.4094 69.0144 36.2503 69.093 36.0729C69.1716 35.8954 69.2122 35.7035 69.2122 35.5094C69.2122 35.3153 69.1716 35.1234 69.093 34.9459C69.0144 34.7685 68.8995 34.6094 68.7558 34.479C68.6121 34.3486 68.4426 34.2497 68.2584 34.1887C68.0741 34.1277 67.8792 34.1059 67.686 34.1247Z" fill="white"/>
<path d="M67.6858 39.624H44.1789C43.8134 39.624 43.4629 39.7692 43.2044 40.0277C42.946 40.2861 42.8008 40.6366 42.8008 41.0021C42.8008 41.3676 42.946 41.7182 43.2044 41.9766C43.4629 42.2351 43.8134 42.3803 44.1789 42.3803H67.6858C68.0513 42.3803 68.4018 42.2351 68.6603 41.9766C68.9187 41.7182 69.0639 41.3676 69.0639 41.0021C69.0639 40.6366 68.9187 40.2861 68.6603 40.0277C68.4018 39.7692 68.0513 39.624 67.6858 39.624Z" fill="white"/>
<path d="M77.2275 0H6.77251C4.97952 0.0103345 3.26291 0.727182 1.99505 1.99504C0.727195 3.2629 0.0103472 4.97951 1.27191e-05 6.7725V52.0012C-0.00171255 52.8923 0.172095 53.7751 0.511512 54.599C0.850928 55.4229 1.34931 56.1719 1.97819 56.8033C2.60708 57.4346 3.35415 57.9359 4.17676 58.2785C4.99937 58.6211 5.88141 58.7983 6.77251 58.8H77.2275C78.1186 58.7983 79.0007 58.6211 79.8233 58.2785C80.6459 57.9359 81.393 57.4346 82.0218 56.8033C82.6507 56.1719 83.1491 55.4229 83.4885 54.599C83.8279 53.7751 84.0017 52.8923 84 52.0012V6.7725C83.9897 4.97951 83.2728 3.2629 82.005 1.99504C80.7371 0.727182 79.0205 0.0103345 77.2275 0ZM81.2963 30.9356V52.0012C81.298 52.5367 81.194 53.0672 80.9903 53.5623C80.7866 54.0575 80.4872 54.5076 80.1092 54.8868C79.7312 55.266 79.2821 55.5669 78.7876 55.7722C78.2931 55.9775 77.7629 56.0831 77.2275 56.0831H6.77251C6.23709 56.0831 5.70693 55.9775 5.21243 55.7722C4.71793 55.5669 4.26881 55.266 3.89082 54.8868C3.51283 54.5076 3.2134 54.0575 3.0097 53.5623C2.806 53.0672 2.70204 52.5367 2.70376 52.0012V6.7725C2.70204 6.23708 2.806 5.70659 3.0097 5.21143C3.2134 4.71627 3.51283 4.26618 3.89082 3.88697C4.26881 3.50776 4.71793 3.20689 5.21243 3.00159C5.70693 2.7963 6.23709 2.69062 6.77251 2.69062H77.2275C77.7629 2.69062 78.2931 2.7963 78.7876 3.00159C79.2821 3.20689 79.7312 3.50776 80.1092 3.88697C80.4872 4.26618 80.7866 4.71627 80.9903 5.21143C81.194 5.70659 81.298 6.23708 81.2963 6.7725V30.8963V30.9356Z" fill="white"/>
</g>
<defs>
<clipPath id="clip0_29457_12887">
<rect width="84" height="84" fill="white"/>
</clipPath>
</defs>
</svg>
