<svg width="84" height="84" viewBox="0 0 84 84" fill="none" xmlns="http://www.w3.org/2000/svg">
<g clip-path="url(#clip0_29449_12448)">
<path d="M52.8098 52.5L45.2117 48.6937L38.0625 45.1264V38.6951C40.3181 36.8266 41.9537 34.3177 42.7534 31.5H45.9375C46.9818 31.5 47.9833 31.0852 48.7218 30.3467C49.4602 29.6083 49.875 28.6068 49.875 27.5625V23.625C49.8733 23.0744 49.7555 22.5303 49.5294 22.0282C49.3032 21.5262 48.9738 21.0774 48.5625 20.7113V13.125C48.5587 9.64521 47.1747 6.30903 44.7141 3.84844C42.2535 1.38786 38.9173 0.00382147 35.4375 0L21 0C19.8212 0.00168516 18.6771 0.399283 17.7512 1.12901C16.8254 1.85874 16.1715 2.8783 15.8944 4.02413C14.0301 4.30622 12.3285 5.24694 11.098 6.67575C9.86764 8.10457 9.18985 9.92692 9.18754 11.8125V20.7113C8.77629 21.0774 8.44685 21.5262 8.2207 22.0282C7.99455 22.5303 7.87677 23.0744 7.87504 23.625V27.5625C7.87504 28.6068 8.28988 29.6083 9.02831 30.3467C9.76673 31.0852 10.7682 31.5 11.8125 31.5H14.9967C15.7971 34.3163 17.4327 36.8237 19.6875 38.6912V45.1224L12.5384 48.6937L4.94029 52.5C3.84753 53.0416 2.92842 53.8786 2.2872 54.9161C1.64598 55.9535 1.30833 57.1499 1.31254 58.3695V82.6875C1.31254 83.0356 1.45082 83.3694 1.69696 83.6156C1.9431 83.8617 2.27694 84 2.62504 84C2.97314 84 3.30698 83.8617 3.55312 83.6156C3.79926 83.3694 3.93754 83.0356 3.93754 82.6875V58.3695C3.93483 57.6378 4.13729 56.92 4.52194 56.2975C4.90659 55.6751 5.45803 55.1729 6.11366 54.8481L12.9387 51.4356L20.1574 57.4481C20.3533 57.6116 20.5926 57.7144 20.8459 57.744C21.0993 57.7736 21.3558 57.7287 21.5841 57.6148L22.9334 56.9402L24.889 61.8187L21.0224 82.446C20.9583 82.7882 21.0328 83.1418 21.2295 83.429C21.4261 83.7163 21.7289 83.9136 22.071 83.9777C22.4132 84.0417 22.7668 83.9672 23.0541 83.7706C23.3413 83.5739 23.5387 83.2712 23.6027 82.929L27.3394 63H30.4107L34.1474 82.929C34.2114 83.2712 34.4088 83.5739 34.696 83.7706C34.9833 83.9672 35.3369 84.0417 35.679 83.9777C36.0212 83.9136 36.3239 83.7163 36.5206 83.429C36.7173 83.1418 36.7918 82.7882 36.7277 82.446L32.8611 61.8187L34.8141 56.9349L36.1634 57.6096C36.3916 57.7234 36.6481 57.7683 36.9015 57.7387C37.1549 57.7091 37.3942 57.6063 37.59 57.4429L44.8088 51.4303L51.6338 54.8428C52.2907 55.1677 52.8432 55.6705 53.2284 56.294C53.6136 56.9175 53.816 57.6366 53.8125 58.3695V82.6875C53.8125 83.0356 53.9508 83.3694 54.197 83.6156C54.4431 83.8617 54.7769 84 55.125 84C55.4731 84 55.807 83.8617 56.0531 83.6156C56.2993 83.3694 56.4375 83.0356 56.4375 82.6875V58.3695C56.4417 57.1499 56.1041 55.9535 55.4629 54.9161C54.8217 53.8786 53.9025 53.0416 52.8098 52.5ZM47.25 27.5625C47.25 27.9106 47.1118 28.2444 46.8656 28.4906C46.6195 28.7367 46.2856 28.875 45.9375 28.875H43.2456C43.285 28.4419 43.3125 28.0061 43.3125 27.5625V22.3125H45.9375C46.2856 22.3125 46.6195 22.4508 46.8656 22.6969C47.1118 22.9431 47.25 23.2769 47.25 23.625V27.5625ZM11.8125 11.8125C11.8125 10.4201 12.3657 9.08475 13.3502 8.10019C14.3348 7.11562 15.6702 6.5625 17.0625 6.5625C17.4106 6.5625 17.7445 6.42422 17.9906 6.17808C18.2368 5.93194 18.375 5.5981 18.375 5.25C18.375 4.55381 18.6516 3.88613 19.1439 3.39384C19.6362 2.90156 20.3038 2.625 21 2.625H35.4375C38.2214 2.62813 40.8903 3.73538 42.8587 5.70383C44.8272 7.67229 45.9344 10.3412 45.9375 13.125V19.6875H43.3125V17.0625C43.3125 16.7144 43.1743 16.3806 42.9281 16.1344C42.682 15.8883 42.3481 15.75 42 15.75C29.6783 15.75 24.5976 10.9279 24.553 10.8846C24.3216 10.6529 24.0119 10.5161 23.6848 10.5011C23.3577 10.486 23.0368 10.5938 22.785 10.8032C18.4079 14.4454 15.8288 14.4388 15.8288 14.4401C15.6496 14.4275 15.4697 14.4523 15.3007 14.5131C15.1316 14.5739 14.9771 14.6693 14.847 14.7932C14.7172 14.9163 14.6138 15.0647 14.5434 15.2293C14.473 15.3938 14.437 15.571 14.4375 15.75V19.6875H11.8125V11.8125ZM11.8125 28.875C11.4644 28.875 11.1306 28.7367 10.8845 28.4906C10.6383 28.2444 10.5 27.9106 10.5 27.5625V23.625C10.5 23.2769 10.6383 22.9431 10.8845 22.6969C11.1306 22.4508 11.4644 22.3125 11.8125 22.3125H14.4375V27.5625C14.4375 28.0061 14.4651 28.4419 14.5045 28.875H11.8125ZM17.0625 27.5625V16.9102C19.4714 16.2697 21.7088 15.1043 23.6145 13.4978C25.6043 14.9769 30.9252 18.0915 40.6875 18.354V27.5625C40.6875 30.6954 39.443 33.6999 37.2277 35.9152C35.0125 38.1305 32.0079 39.375 28.875 39.375C25.7422 39.375 22.7376 38.1305 20.5223 35.9152C18.3071 33.6999 17.0625 30.6954 17.0625 27.5625ZM28.875 42C31.1543 41.9843 33.3995 41.4455 35.4375 40.425V45.3285L28.875 50.7938L22.3125 45.3259V40.425C24.3518 41.4424 26.5962 41.981 28.875 42ZM21.1812 54.8796L15.5072 50.1546L20.8189 47.4994L26.4929 52.2244L21.1812 54.8796ZM30.6115 60.375H27.1386L25.2932 55.7589L28.875 53.9674L32.4569 55.7589L30.6115 60.375ZM36.5689 54.8796L31.2572 52.2244L36.9312 47.4994L42.2429 50.1546L36.5689 54.8796Z" fill="white"/>
<path d="M45.9375 63C45.5894 63 45.2556 63.1383 45.0094 63.3844C44.7633 63.6306 44.625 63.9644 44.625 64.3125V82.6875C44.625 83.0356 44.7633 83.3694 45.0094 83.6156C45.2556 83.8617 45.5894 84 45.9375 84C46.2856 84 46.6194 83.8617 46.8656 83.6156C47.1117 83.3694 47.25 83.0356 47.25 82.6875V64.3125C47.25 63.9644 47.1117 63.6306 46.8656 63.3844C46.6194 63.1383 46.2856 63 45.9375 63Z" fill="white"/>
<path d="M11.8125 63C11.4644 63 11.1306 63.1383 10.8844 63.3844C10.6383 63.6306 10.5 63.9644 10.5 64.3125V82.6875C10.5 83.0356 10.6383 83.3694 10.8844 83.6156C11.1306 83.8617 11.4644 84 11.8125 84C12.1606 84 12.4944 83.8617 12.7406 83.6156C12.9867 83.3694 13.125 83.0356 13.125 82.6875V64.3125C13.125 63.9644 12.9867 63.6306 12.7406 63.3844C12.4944 63.1383 12.1606 63 11.8125 63Z" fill="white"/>
<path d="M63 27.5625H78.75C79.0981 27.5625 79.4319 27.4242 79.6781 27.1781C79.9242 26.9319 80.0625 26.5981 80.0625 26.25V21C80.0625 20.6519 79.9242 20.3181 79.6781 20.0719C79.4319 19.8258 79.0981 19.6875 78.75 19.6875C78.4019 19.6875 78.0681 19.8258 77.8219 20.0719C77.5758 20.3181 77.4375 20.6519 77.4375 21V24.9375H64.3125V11.8125H76.125C76.4731 11.8125 76.8069 11.6742 77.0531 11.4281C77.2992 11.1819 77.4375 10.8481 77.4375 10.5C77.4375 10.1519 77.2992 9.81806 77.0531 9.57192C76.8069 9.32578 76.4731 9.1875 76.125 9.1875H63C62.6519 9.1875 62.3181 9.32578 62.0719 9.57192C61.8258 9.81806 61.6875 10.1519 61.6875 10.5V26.25C61.6875 26.5981 61.8258 26.9319 62.0719 27.1781C62.3181 27.4242 62.6519 27.5625 63 27.5625Z" fill="white"/>
<path d="M69.1784 16.135C68.9309 15.896 68.5993 15.7637 68.2552 15.7667C67.9111 15.7696 67.5819 15.9077 67.3385 16.151C67.0952 16.3944 66.9571 16.7236 66.9542 17.0677C66.9512 17.4118 67.0835 17.7434 67.3225 17.9909L71.26 21.9284C71.5062 22.1745 71.8399 22.3127 72.188 22.3127C72.536 22.3127 72.8698 22.1745 73.1159 21.9284L82.3034 12.7409C82.5425 12.4934 82.6748 12.1618 82.6718 11.8177C82.6688 11.4736 82.5308 11.1444 82.2874 10.901C82.0441 10.6577 81.7149 10.5196 81.3708 10.5167C81.0266 10.5137 80.6951 10.646 80.4475 10.885L72.188 19.1446L69.1784 16.135Z" fill="white"/>
<path d="M63 51.1875H78.75C79.0981 51.1875 79.4319 51.0492 79.6781 50.8031C79.9242 50.5569 80.0625 50.2231 80.0625 49.875V44.625C80.0625 44.2769 79.9242 43.9431 79.6781 43.6969C79.4319 43.4508 79.0981 43.3125 78.75 43.3125C78.4019 43.3125 78.0681 43.4508 77.8219 43.6969C77.5758 43.9431 77.4375 44.2769 77.4375 44.625V48.5625H64.3125V35.4375H76.125C76.4731 35.4375 76.8069 35.2992 77.0531 35.0531C77.2992 34.8069 77.4375 34.4731 77.4375 34.125C77.4375 33.7769 77.2992 33.4431 77.0531 33.1969C76.8069 32.9508 76.4731 32.8125 76.125 32.8125H63C62.6519 32.8125 62.3181 32.9508 62.0719 33.1969C61.8258 33.4431 61.6875 33.7769 61.6875 34.125V49.875C61.6875 50.2231 61.8258 50.5569 62.0719 50.8031C62.3181 51.0492 62.6519 51.1875 63 51.1875Z" fill="white"/>
<path d="M80.4475 34.51L72.188 42.7696L69.1784 39.76C68.9309 39.521 68.5993 39.3887 68.2552 39.3917C67.9111 39.3946 67.5819 39.5327 67.3385 39.776C67.0952 40.0194 66.9571 40.3486 66.9542 40.6927C66.9512 41.0368 67.0835 41.3684 67.3225 41.6159L71.26 45.5534C71.5062 45.7995 71.8399 45.9377 72.188 45.9377C72.536 45.9377 72.8698 45.7995 73.1159 45.5534L82.3034 36.3659C82.5425 36.1184 82.6748 35.7868 82.6718 35.4427C82.6688 35.0986 82.5308 34.7694 82.2874 34.526C82.0441 34.2827 81.7149 34.1446 81.3708 34.1417C81.0266 34.1387 80.6951 34.271 80.4475 34.51Z" fill="white"/>
<path d="M78.75 66.9375C78.4019 66.9375 78.0681 67.0758 77.8219 67.3219C77.5758 67.5681 77.4375 67.9019 77.4375 68.25V72.1875H64.3125V59.0625H76.125C76.4731 59.0625 76.8069 58.9242 77.0531 58.6781C77.2992 58.4319 77.4375 58.0981 77.4375 57.75C77.4375 57.4019 77.2992 57.0681 77.0531 56.8219C76.8069 56.5758 76.4731 56.4375 76.125 56.4375H63C62.6519 56.4375 62.3181 56.5758 62.0719 56.8219C61.8258 57.0681 61.6875 57.4019 61.6875 57.75V73.5C61.6875 73.8481 61.8258 74.1819 62.0719 74.4281C62.3181 74.6742 62.6519 74.8125 63 74.8125H78.75C79.0981 74.8125 79.4319 74.6742 79.6781 74.4281C79.9242 74.1819 80.0625 73.8481 80.0625 73.5V68.25C80.0625 67.9019 79.9242 67.5681 79.6781 67.3219C79.4319 67.0758 79.0981 66.9375 78.75 66.9375Z" fill="white"/>
<path d="M80.4475 58.135L72.188 66.3946L69.1784 63.385C68.9309 63.146 68.5993 63.0137 68.2552 63.0167C67.9111 63.0196 67.5819 63.1577 67.3385 63.401C67.0952 63.6444 66.9571 63.9736 66.9542 64.3177C66.9512 64.6618 67.0835 64.9934 67.3225 65.2409L71.26 69.1784C71.5062 69.4245 71.8399 69.5627 72.188 69.5627C72.536 69.5627 72.8698 69.4245 73.1159 69.1784L82.3034 59.9909C82.5425 59.7434 82.6748 59.4118 82.6718 59.0677C82.6688 58.7236 82.5308 58.3944 82.2874 58.151C82.0441 57.9077 81.7149 57.7696 81.3708 57.7667C81.0266 57.7637 80.6951 57.896 80.4475 58.135Z" fill="white"/>
</g>
<defs>
<clipPath id="clip0_29449_12448">
<rect width="84" height="84" fill="white"/>
</clipPath>
</defs>
</svg>
